<?xml version="1.0" encoding="UTF-8"?>
<svg width="133px" height="34px" viewBox="0 0 133 34" version="1.1" xmlns="http://www.w3.org/2000/svg" xmlns:xlink="http://www.w3.org/1999/xlink">
    <title>Apple@1x</title>
    <defs>
        <linearGradient x1="50%" y1="0%" x2="50%" y2="100.000447%" id="linearGradient-1">
            <stop stop-color="#F452FF" offset="0%"></stop>
            <stop stop-color="#832BC1" offset="100%"></stop>
        </linearGradient>
    </defs>
    <g id="podcast" stroke="none" stroke-width="1" fill="none" fill-rule="evenodd">
        <g id="podcast-mock-up-copy-14" transform="translate(-1056.000000, -179.000000)">
            <g id="Apple" transform="translate(1056.000000, 179.000000)">
                <g id="Apple_Podcasts_Badge-Copy-3" transform="translate(0.664038, 0.661747)">
                    <g id="XMLID_24_" fill="#FFFFFF" fill-rule="nonzero">
                        <path d="M131.667917,23.0901714 C131.667917,23.4820216 131.667917,23.8648752 131.658903,24.2667215 C131.658903,24.5945962 131.658903,24.919472 131.653895,25.2363508 C131.635867,25.8571135 131.596806,26.5858348 131.466602,27.2955635 C131.351422,27.9653074 131.153112,28.5740746 130.862657,29.1498545 C130.558181,29.7346309 130.17358,30.2644283 129.708853,30.7252521 C129.250136,31.1840767 128.72231,31.5689295 128.136394,31.8678152 C127.566503,32.1577044 126.953544,32.3586276 126.268472,32.4825802 C125.55736,32.6075324 124.831225,32.6435187 124.220269,32.6625114 C123.891756,32.6685091 123.563242,32.6735072 123.23573,32.6735072 C122.849125,32.6755064 122.457513,32.6755064 122.072911,32.6755064 L9.60201669,32.6755064 C9.20940267,32.6755064 8.81979336,32.6755064 8.42317308,32.6735072 C8.09766402,32.6735072 7.77515965,32.6695087 7.45365685,32.6625114 C6.8356904,32.6445183 6.10855323,32.608532 5.39243328,32.4825802 C4.70936502,32.3596272 4.10041268,32.1577044 3.53152298,31.8678152 C2.95061449,31.5739276 2.42278902,31.1870755 1.95405597,30.7192544 C1.49433701,30.2644283 1.11073709,29.7376297 0.810267185,29.1528533 C0.519812941,28.5820716 0.320501235,27.9753036 0.198310139,27.2885661 C0.064100247,26.5528474 0.0310485571,25.8081322 0.0170266281,25.2363508 C0.00901409723,25.0094376 0.00600939816,24.7805251 0.00400626544,24.5516126 L0,24.2667215 L0,23.0901714 L0,9.58733425 L0,8.42277953 L0.00600939816,8.12489342 C0.00801253088,7.8989798 0.01101723,7.67106694 0.0190297608,7.44015523 C0.0330516899,6.87337195 0.0661033797,6.12865669 0.201314838,5.38793991 C0.321502801,4.70320172 0.520814507,4.09643372 0.813271884,3.52665157 C1.11173866,2.93987593 1.49533857,2.41307735 1.9590638,1.9552524 C2.42379059,1.49142975 2.95261763,1.10757651 3.53352612,0.81069003 C4.10942677,0.518801635 4.71938069,0.315879223 5.39243328,0.196924705 C6.12357672,0.0679740099 6.87675462,0.0349866228 7.44564432,0.0169935025 L8.42417465,0.00299885338 C8.81879179,0 9.20940267,0 9.60101512,0 L122.071909,0 C122.456511,0 122.848123,0 123.232725,0.00299885338 L123.286809,0.00499808897 L124.212257,0.0169935025 C124.788157,0.033987005 125.541335,0.0679740099 126.266469,0.196924705 C126.943528,0.315879223 127.553482,0.517802017 128.134391,0.81069003 C128.719305,1.10857613 129.248132,1.49242937 129.707851,1.9552524 C130.170575,2.41607621 130.555177,2.9438744 130.856648,3.52565196 C131.150107,4.10443066 131.349419,4.71419751 131.463597,5.39393761 C131.593801,6.09466969 131.632862,6.82539029 131.65089,7.438156 C131.655898,7.76303178 131.655898,8.08890718 131.655898,8.426778 C131.664912,8.81363008 131.664912,9.19748332 131.664912,9.58633464 L131.664912,23.0901714 L131.667917,23.0901714 Z" id="XMLID_42_"></path>
                    </g>
                    <g id="XMLID_61_" transform="translate(31.919920, 5.913739)" fill-rule="nonzero">
                        <g id="Group" transform="translate(0.730142, 0.000000)" fill="#777878">
                            <polygon id="Path" points="3.92313543 6.44853438 0 6.44853438 0 8.87838952e-16 0.806260919 8.87838952e-16 0.806260919 5.7248111 3.92313543 5.7248111"></polygon>
                            <path d="M4.9036689,0.535795137 C4.9036689,0.267897569 5.12309579,0.052979743 5.38761041,0.052979743 C5.65613283,0.052979743 5.87555973,0.267897569 5.87555973,0.535795137 C5.87555973,0.799694235 5.65613283,1.01861053 5.38761041,1.01861053 C5.12309579,1.01861053 4.9036689,0.799694235 4.9036689,0.535795137 Z M4.99785213,1.80031165 L5.7773687,1.80031165 L5.7773687,6.44853438 L4.99785213,6.44853438 L4.99785213,1.80031165 Z" id="Shape"></path>
                            <path d="M8.75869781,1.76032693 C9.71719682,1.76032693 10.4383246,2.32311175 10.4653669,3.09681592 L9.72220465,3.09681592 C9.67713416,2.6629818 9.30154678,2.39508423 8.73265709,2.39508423 C8.16877523,2.39508423 7.78818001,2.66398142 7.78818001,3.0618293 C7.78818001,3.37470967 8.03456534,3.58063094 8.56239081,3.7135801 L9.28351859,3.8875136 C10.2239894,4.12442301 10.5635204,4.4552965 10.5635204,5.13003851 C10.5635204,5.92973275 9.79331586,6.49351718 8.70962106,6.49351718 C7.69303121,6.49351718 6.96789716,5.94872549 6.89578438,5.1350366 L7.67500301,5.1350366 C7.75112206,5.60885544 8.13171727,5.85875989 8.75869781,5.85875989 C9.38567835,5.85875989 9.7802955,5.59985888 9.7802955,5.18901596 C9.7802955,4.86713904 9.58799476,4.69720401 9.06417555,4.55925675 L8.24489427,4.34933702 C7.42561299,4.13941728 7.02298331,3.72757475 7.02298331,3.10181401 C7.02098018,2.31411519 7.73810169,1.76032693 8.75869781,1.76032693 Z" id="Path"></path>
                            <path d="M12.6688129,0.678740482 L12.6688129,1.80031165 L13.5732273,1.80031165 L13.5732273,2.44006703 L12.6688129,2.44006703 L12.6688129,5.19701291 C12.6688129,5.62185047 12.8480933,5.81377709 13.2467167,5.81377709 C13.3358561,5.81377709 13.5151365,5.79978244 13.569221,5.79178549 L13.569221,6.44453591 C13.4750738,6.4665275 13.259737,6.48052215 13.0764504,6.48052215 C12.2211127,6.48052215 11.8895943,6.13165554 11.8895943,5.23799724 L11.8895943,2.44006703 L11.1955088,2.44006703 L11.1955088,1.80031165 L11.8895943,1.80031165 L11.8895943,0.678740482 L12.6688129,0.678740482 Z" id="Path"></path>
                            <path d="M18.3937662,5.11704348 C18.2645641,5.92173581 17.4532954,6.49351718 16.4547337,6.49351718 C15.1386755,6.49351718 14.3093786,5.58586423 14.3093786,4.14241614 C14.3093786,2.69896804 15.1426818,1.75632846 16.4176758,1.75632846 C17.6676306,1.75632846 18.4508555,2.63199365 18.4508555,4.04045512 L18.4508555,4.33534237 L15.1106317,4.33534237 L15.1106317,4.38032517 C15.1106317,5.25199189 15.6524791,5.81877517 16.4717603,5.81877517 C17.0446563,5.81877517 17.4973643,5.54587952 17.6265664,5.11704348 L18.3937662,5.11704348 Z M15.1166411,3.72757475 L17.6465977,3.72757475 C17.6285695,2.94987211 17.1317926,2.43206866 16.4066585,2.43206866 C15.6855308,2.43107047 15.1657178,2.95387058 15.1166411,3.72757475 Z" id="Shape"></path>
                            <path d="M19.5055048,1.80031165 L20.239653,1.80031165 L20.239653,2.56002117 L20.2576812,2.56002117 C20.549137,2.0282245 21.0138638,1.75532884 21.7349916,1.75532884 C22.7565893,1.75532884 23.3475134,2.41207773 23.3475134,3.46667451 L23.3475134,6.44753477 L22.5682948,6.44753477 L22.5682948,3.60562138 C22.5682948,2.85490842 22.2187481,2.44306589 21.4936141,2.44306589 C20.7414377,2.44306589 20.2847235,2.96586599 20.2847235,3.7525652 L20.2847235,6.44753477 L19.5055048,6.44753477 L19.5055048,1.80031165 Z" id="Path"></path>
                            <path d="M26.5304913,4.12542263 C26.5304913,2.67697645 27.371807,1.75632846 28.6888668,1.75632846 C30.0009187,1.75632846 30.8422345,2.67697645 30.8422345,4.12542263 C30.8422345,5.56887073 30.0009187,6.4945168 28.6888668,6.4945168 C27.3728086,6.49351718 26.5304913,5.56787111 26.5304913,4.12542263 Z M30.0499955,4.12542263 C30.0499955,3.06582777 29.5442045,2.44006703 28.6888668,2.44006703 C27.8295229,2.44006703 27.3227303,3.06982624 27.3227303,4.12542263 C27.3227303,5.18501749 27.8335291,5.81077823 28.6888668,5.81077823 C29.5442045,5.81077823 30.0499955,5.18401788 30.0499955,4.12542263 Z" id="Shape"></path>
                            <path d="M31.8958823,1.80031165 L32.6300304,1.80031165 L32.6300304,2.56002117 L32.6480586,2.56002117 C32.9395144,2.0282245 33.4042412,1.75532884 34.125369,1.75532884 C35.1469667,1.75532884 35.7378908,2.41207773 35.7378908,3.46667451 L35.7378908,6.44753477 L34.9586722,6.44753477 L34.9586722,3.60562138 C34.9586722,2.85490842 34.6091255,2.44306589 33.8839915,2.44306589 C33.1318152,2.44306589 32.6751009,2.96586599 32.6751009,3.7525652 L32.6751009,6.44753477 L31.8958823,6.44753477 L31.8958823,1.80031165 Z" id="Path"></path>
                        </g>
                        <g id="Group" transform="translate(0.000000, 10.822862)" fill="#000000">
                            <path d="M6.08351407,6.98732837 L2.42679529,6.98732837 L1.54942316,9.57533884 L-7.11655701e-15,9.57533884 L3.46341647,0.000999617793 L5.07193204,0.000999617793 L8.53534851,9.57533884 L6.95988463,9.57533884 L6.08351407,6.98732837 Z M2.80638894,5.79378473 L5.70492198,5.79378473 L4.27568679,1.59339076 L4.23562413,1.59339076 L2.80638894,5.79378473 Z" id="Shape"></path>
                            <path d="M16.1903202,6.08567312 C16.1903202,8.25484374 15.0265001,9.64831094 13.2717558,9.64831094 C12.2741957,9.64831094 11.4839599,9.20348102 11.0713145,8.426778 L11.0382628,8.426778 L11.0382628,11.8834563 L9.60201669,11.8834563 L9.60201669,2.59400817 L10.9911892,2.59400817 L10.9911892,3.75556405 L11.01723,3.75556405 C11.4158534,3.0058507 12.2671848,2.52203569 13.2447135,2.52203569 C15.0194891,2.52303531 16.1903202,3.92250022 16.1903202,6.08567312 Z M14.7140114,6.08567312 C14.7140114,4.67221357 13.9828679,3.74356864 12.8661215,3.74356864 C11.7694063,3.74356864 11.0312519,4.69220592 11.0312519,6.08567312 C11.0312519,7.49213536 11.7694063,8.43477494 12.8661215,8.43477494 C13.9828679,8.43477494 14.7140114,7.51212772 14.7140114,6.08567312 Z" id="Shape"></path>
                            <path d="M23.9414423,6.08567312 C23.9414423,8.25484374 22.7776221,9.64831094 21.0228779,9.64831094 C20.0253178,9.64831094 19.2350819,9.20348102 18.8224366,8.426778 L18.7893849,8.426778 L18.7893849,11.8834563 L17.3531387,11.8834563 L17.3531387,2.59400817 L18.7423113,2.59400817 L18.7423113,3.75556405 L18.768352,3.75556405 C19.1669754,3.0058507 20.0183068,2.52203569 20.9958356,2.52203569 C22.7706112,2.52303531 23.9414423,3.92250022 23.9414423,6.08567312 Z M22.4651334,6.08567312 C22.4651334,4.67221357 21.73399,3.74356864 20.6172435,3.74356864 C19.5205283,3.74356864 18.7823739,4.69220592 18.7823739,6.08567312 C18.7823739,7.49213536 19.5205283,8.43477494 20.6172435,8.43477494 C21.73399,8.43477494 22.4651334,7.51212772 22.4651334,6.08567312 Z" id="Shape"></path>
                            <polygon id="Path" points="25.1573438 0.000999617793 26.59359 0.000999617793 26.59359 9.57533884 25.1573438 9.57533884"></polygon>
                            <path d="M34.3617387,7.52612236 C34.1694379,8.79363773 32.9325035,9.66230559 31.3500286,9.66230559 C29.3158473,9.66230559 28.0528722,8.30182577 28.0528722,6.11966013 C28.0528722,3.93049716 29.3228583,2.51004028 31.2899346,2.51004028 C33.2249608,2.51004028 34.4408624,3.83653309 34.4408624,5.95372358 L34.4408624,6.44453591 L29.5011371,6.44453591 L29.5011371,6.53050304 C29.5011371,7.72504631 30.2523119,8.50774704 31.3820787,8.50774704 C32.1793256,8.50774704 32.804303,8.12989151 32.9976053,7.52612236 L34.3617387,7.52612236 Z M29.5091496,5.44191927 L33.0056178,5.44191927 C32.9725661,4.37332785 32.2874947,3.67059654 31.2909362,3.67059654 C30.3003871,3.67059654 29.582264,4.38732249 29.5091496,5.44191927 Z" id="Shape"></path>
                            <path d="M42.6266643,0.000999617793 C44.4875746,0.000999617793 45.784603,1.28151001 45.784603,3.1457972 C45.784603,5.0170817 44.4615338,6.3035898 42.5805922,6.3035898 L40.5193686,6.3035898 L40.5193686,9.57433922 L39.0300395,9.57433922 L39.0300395,3.55135581e-15 L42.6266643,3.55135581e-15 L42.6266643,0.000999617793 Z M40.5193686,5.05706642 L42.2280408,5.05706642 C43.5240677,5.05706642 44.2622221,4.36033281 44.2622221,3.15279452 C44.2622221,1.94525623 43.5240677,1.25551995 42.2350518,1.25551995 L40.5203702,1.25551995 L40.5203702,5.05706642 L40.5193686,5.05706642 Z" id="Shape"></path>
                            <path d="M46.4576556,6.08567312 C46.4576556,3.88951283 47.7536825,2.50904066 49.7748434,2.50904066 C51.8020137,2.50904066 53.0920311,3.88851322 53.0920311,6.08567312 C53.0920311,8.28883074 51.8090246,9.66230559 49.7748434,9.66230559 C47.7406621,9.66230559 46.4576556,8.28883074 46.4576556,6.08567312 Z M51.6297443,6.08567312 C51.6297443,4.57924911 50.9386635,3.69058889 49.7748434,3.69058889 C48.6110233,3.69058889 47.9199425,4.58624644 47.9199425,6.08567312 C47.9199425,7.59809485 48.6110233,8.48075736 49.7748434,8.48075736 C50.9386635,8.48075736 51.6297443,7.59809485 51.6297443,6.08567312 Z" id="Shape"></path>
                            <path d="M54.0865865,6.08567312 C54.0865865,3.92949755 55.2764474,2.52303531 57.0111603,2.52303531 C58.0147298,2.52303531 58.8059672,2.98685797 59.2045906,3.75656367 L59.2306314,3.75656367 L59.2306314,0.000999617793 L60.6728869,0.000999617793 L60.6728869,9.57533884 L59.2767034,9.57533884 L59.2767034,8.3877929 L59.2506627,8.3877929 C58.8380174,9.18348867 58.0407705,9.64831147 57.0231791,9.64831147 C55.2764474,9.64931056 54.0865865,8.2418487 54.0865865,6.08567312 Z M55.5558844,6.08567312 C55.5558844,7.51912504 56.2870278,8.43477494 57.4037743,8.43477494 C58.5075005,8.43477494 59.2446533,7.50613001 59.2446533,6.08567312 C59.2446533,4.67921089 58.5064989,3.74356864 57.4037743,3.74356864 C56.2870278,3.74356864 55.5558844,4.66621586 55.5558844,6.08567312 Z" id="Shape"></path>
                            <path d="M66.9046328,4.99708935 C66.7784354,4.26037103 66.1995301,3.70958163 65.2560546,3.70958163 C64.1523285,3.70958163 63.421185,4.63222885 63.421185,6.08467351 C63.421185,7.57110517 64.1593394,8.46676271 65.2690749,8.46676271 C66.160469,8.46676271 66.7453838,8.02193279 66.9046328,7.213242 L68.287796,7.213242 C68.1275453,8.6796813 66.9517064,9.66130597 65.2560546,9.66130597 C63.261936,9.66130597 61.9588981,8.30082615 61.9588981,6.08467351 C61.9588981,3.9155029 63.261936,2.50804104 65.2430342,2.50804104 C67.0378411,2.50804104 68.1545876,3.63560991 68.2747756,4.99608973 L66.9046328,4.99608973 L66.9046328,4.99708935 Z" id="Path"></path>
                            <path d="M69.1962166,7.57810249 C69.1962166,6.35756916 70.1336828,5.64084321 71.8754067,5.53488372 L73.7363169,5.42892423 L73.7363169,4.89812719 C73.7363169,4.10842913 73.2114962,3.68459119 72.3000708,3.68459119 C71.548896,3.68459119 70.997033,4.06944404 70.883856,4.66621586 L69.5407555,4.66621586 C69.5808181,3.41869285 70.7506476,2.51004028 72.3401334,2.51004028 C74.054815,2.51004028 75.1645506,3.40569782 75.1645506,4.7921677 L75.1645506,9.57633846 L73.7894,9.57633846 L73.7894,8.42877723 L73.7563483,8.42877723 C73.3637343,9.17849058 72.4923715,9.67630024 71.548896,9.67630024 C70.1597235,9.67530062 69.1962166,8.81862817 69.1962166,7.57810249 Z M73.7363169,6.96133831 L73.7363169,6.42354394 L72.0606964,6.52950343 C71.1302413,6.58248317 70.6384722,6.94134596 70.6384722,7.5451151 C70.6384722,8.12889189 71.1502726,8.54073443 71.948521,8.54073443 C72.9661124,8.54073443 73.7363169,7.86399318 73.7363169,6.96133831 Z" id="Shape"></path>
                            <path d="M79.3641183,2.51603799 C80.9125399,2.51603799 82.0222754,3.37171082 82.0563287,4.60623879 L80.7072188,4.60623879 C80.6461233,3.98947461 80.1223041,3.61061947 79.3240557,3.61061947 C78.5468402,3.61061947 78.0280288,3.96848264 78.0280288,4.51327434 C78.0280288,4.93111457 78.3735692,5.21000794 79.0977017,5.38893952 L80.2745421,5.66083556 C81.683746,5.99870638 82.2155777,6.51650839 82.2155777,7.53811778 C82.2155777,8.79863582 81.0187059,9.66130597 79.3100337,9.66130597 C77.6614555,9.66130597 76.55172,8.81862817 76.4455539,7.54411549 L77.8677782,7.54411549 C77.9679348,8.21385941 78.5067775,8.57272219 79.3771387,8.57272219 C80.2344795,8.57272219 80.7743238,8.22085673 80.7743238,7.66406962 C80.7743238,7.23223473 80.5079071,7.00032341 79.7767637,6.8143945 L78.5268088,6.50951107 C77.2638337,6.20362802 76.6258359,5.56087378 76.6258359,4.59224414 C76.6248343,3.35871579 77.7345699,2.51603799 79.3641183,2.51603799 Z" id="Path"></path>
                            <path d="M85.3915447,0.943639197 L85.3915447,2.59500779 L86.7206232,2.59500779 L86.7206232,3.72957399 L85.3915447,3.72957399 L85.3915447,7.57810249 C85.3915447,8.17587393 85.6579613,8.45376768 86.2428761,8.45376768 C86.3891048,8.45376768 86.6214682,8.43377532 86.7146138,8.42078029 L86.7146138,9.54834916 C86.5553648,9.58833387 86.2358651,9.61432393 85.917367,9.61432393 C84.5011522,9.61432393 83.9492891,9.08352689 83.9492891,7.73004439 L83.9492891,3.72957399 L82.9316977,3.72957399 L82.9316977,2.59500779 L83.9492891,2.59500779 L83.9492891,0.943639197 L85.3915447,0.943639197 Z" id="Path"></path>
                            <path d="M90.573649,2.51603799 C92.1220706,2.51603799 93.2318061,3.37171082 93.2658594,4.60623879 L91.9167495,4.60623879 C91.855654,3.98947461 91.3318347,3.61061947 90.5335864,3.61061947 C89.7563709,3.61061947 89.2375595,3.96848264 89.2375595,4.51327434 C89.2375595,4.93111457 89.5830999,5.21000794 90.3072324,5.38893952 L91.4840728,5.66083556 C92.8932767,5.99870638 93.4251084,6.51650839 93.4251084,7.53811778 C93.4251084,8.79863582 92.2282366,9.66130597 90.5195644,9.66130597 C88.8709862,9.66130597 87.7612507,8.81862817 87.6550846,7.54411549 L89.0773089,7.54411549 C89.1774655,8.21385941 89.7163082,8.57272219 90.5866694,8.57272219 C91.4440102,8.57272219 91.9838544,8.22085673 91.9838544,7.66406962 C91.9838544,7.23223473 91.7174378,7.00032341 90.9862944,6.8143945 L89.7363395,6.50951107 C88.4733644,6.20362802 87.8353666,5.56087378 87.8353666,4.59224414 C87.8333635,3.35871579 88.9441005,2.51603799 90.573649,2.51603799 Z" id="Path"></path>
                        </g>
                    </g>
                    <g id="XMLID_6_" transform="translate(5.639820, 5.147032)">
                        <path d="M21.9843816,19.4015817 C21.7660401,19.9543704 21.2632538,20.732073 20.5501386,21.2808632 C20.1384948,21.597742 19.6467257,21.8996266 18.9706684,22.0995502 C18.2505422,22.3124688 17.364156,22.3844412 16.2604298,22.3844412 L6.16764564,22.3844412 C5.06391951,22.3844412 4.17753329,22.3124688 3.45740707,22.0995502 C2.78235135,21.8996266 2.29058226,21.5967424 1.87793692,21.2808632 C1.16482168,20.7330726 0.661033797,19.9543704 0.443693897,19.4015817 C0.0050078318,18.2880075 3.55827851e-15,17.0244906 3.55827851e-15,16.2287949 L3.55827851e-15,16.2287949 L3.55827851e-15,6.15564637 L3.55827851e-15,6.15564637 C3.55827851e-15,5.35995061 0.00400626544,4.09643372 0.443693897,2.98285949 C0.662035364,2.43007086 1.16482168,1.65236821 1.87793692,1.10357804 C2.2895807,0.787698821 2.78134978,0.48481463 3.45740707,0.284891071 C4.17753329,0.0719724811 5.06391951,0 6.16764564,0 L6.16764564,0 L16.2604298,0 L16.2604298,0 C17.364156,0 18.2505422,0.0719724811 18.9706684,0.284891071 C19.6457241,0.48481463 20.1374932,0.787698821 20.5501386,1.10357804 C21.2632538,1.65136859 21.7670417,2.43007086 21.9843816,2.98285949 C22.4230677,4.09643372 22.4280755,5.35995061 22.4280755,6.15564637 L22.4280755,16.2287949 C22.4280755,17.0244906 22.4240692,18.2880075 21.9843816,19.4015817 Z" id="XMLID_20_" fill="url(#linearGradient-1)"></path>
                        <path d="M21.9843816,19.4015817 C21.7660401,19.9543704 21.2632538,20.732073 20.5501386,21.2808632 C20.1384948,21.597742 19.6467257,21.8996266 18.9706684,22.0995502 C18.2505422,22.3124688 17.364156,22.3844412 16.2604298,22.3844412 L6.16764564,22.3844412 C5.06391951,22.3844412 4.17753329,22.3124688 3.45740707,22.0995502 C2.78235135,21.8996266 2.29058226,21.5967424 1.87793692,21.2808632 C1.16482168,20.7330726 0.661033797,19.9543704 0.443693897,19.4015817 C0.0050078318,18.2880075 3.55827851e-15,17.0244906 3.55827851e-15,16.2287949 L3.55827851e-15,16.2287949 L3.55827851e-15,6.15564637 L3.55827851e-15,6.15564637 C3.55827851e-15,5.35995061 0.00400626544,4.09643372 0.443693897,2.98285949 C0.662035364,2.43007086 1.16482168,1.65236821 1.87793692,1.10357804 C2.2895807,0.787698821 2.78134978,0.48481463 3.45740707,0.284891071 C4.17753329,0.0719724811 5.06391951,0 6.16764564,0 L6.16764564,0 L16.2604298,0 L16.2604298,0 C17.364156,0 18.2505422,0.0719724811 18.9706684,0.284891071 C19.6457241,0.48481463 20.1374932,0.787698821 20.5501386,1.10357804 C21.2632538,1.65136859 21.7670417,2.43007086 21.9843816,2.98285949 C22.4230677,4.09643372 22.4280755,5.35995061 22.4280755,6.15564637 L22.4280755,16.2287949 C22.4280755,17.0244906 22.4240692,18.2880075 21.9843816,19.4015817 Z" id="XMLID_18_"></path>
                        <g id="XMLID_7_" transform="translate(3.330594, 2.480980)" fill="#FFFFFF" fill-rule="nonzero">
                            <path d="M9.50948705,10.3851005 C9.17296076,10.0312358 8.5820366,9.8033229 7.88394485,9.8033229 C7.1858531,9.8033229 6.59492895,10.0302361 6.25840265,10.3851005 C6.08312854,10.5700297 5.98998287,10.7599571 5.96093744,11.0298539 C5.90384816,11.552654 5.93589828,12.0034817 5.99699383,12.7232065 C6.05508468,13.4089443 6.16625854,14.3235946 6.31148567,15.256238 C6.414647,15.9189846 6.49877858,16.2768477 6.57489762,16.5337495 C6.69809028,16.9485909 7.16081394,17.3124518 7.88394485,17.3124518 C8.60707576,17.3124518 9.06879785,16.9495905 9.19299208,16.5337495 C9.26911113,16.2778473 9.3532427,15.9199842 9.45640404,15.256238 C9.60163116,14.3245942 9.71280502,13.4099439 9.77089587,12.7232065 C9.83199142,12.0034817 9.86404154,11.552654 9.80795383,11.0298539 C9.7789084,10.7599571 9.68576273,10.5700297 9.50948705,10.3851005 Z M6.05107841,7.22930708 C6.05107841,8.24092029 6.87236283,9.06160649 7.88694955,9.06160649 C8.90153627,9.06160649 9.72282069,8.2419199 9.72282069,7.22930708 C9.72282069,6.21769387 8.90053471,5.39700766 7.88694955,5.39700766 C6.87336439,5.39700766 6.05107841,6.21769387 6.05107841,7.22930708 Z M7.86391352,3.55018099e-05 C3.57120011,0.0120666127 0.0536990532,3.48773768 0.000616036188,7.77209954 C-0.0424513173,11.2427725 2.17701974,14.2116374 5.27686762,15.2992215 C5.35198509,15.3252116 5.42810414,15.2632353 5.41708691,15.1842655 C5.37602269,14.9153683 5.33796317,14.6444719 5.30290834,14.3775739 C5.29088955,14.2836098 5.23079557,14.2026408 5.14365929,14.1646553 C2.69382798,13.0960639 0.983152635,10.6440015 1.01019493,7.80408731 C1.04625132,4.07651256 4.09602088,1.03767447 7.83086183,1.00668632 C11.6488328,0.975698165 14.7657073,4.067516 14.7657073,7.8710617 C14.7657073,10.6829866 13.0620429,13.1050605 10.6312414,14.1646553 C10.5441051,14.2026408 10.4840111,14.2836098 10.4719923,14.3775739 C10.4369375,14.6434723 10.398878,14.9143687 10.3578138,15.1832659 C10.345795,15.2622357 10.421914,15.324212 10.498033,15.2982219 C13.5678339,14.2206339 15.7742846,11.2977515 15.7742846,7.87006208 C15.7732831,3.52372392 12.2227303,-0.0129238322 7.86391352,3.55018099e-05 Z M7.72068953,3.61169029 C10.1544958,3.51772621 12.1636379,5.46598129 12.1636379,7.87406056 C12.1636379,9.09859235 11.643825,10.2041696 10.8125249,10.9838715 C10.7424152,11.0498463 10.7043557,11.1438104 10.7093636,11.2397737 C10.7253886,11.5326617 10.7193792,11.8175528 10.7003495,12.1384301 C10.6953416,12.2243972 10.791492,12.2783766 10.8626032,12.2303949 C12.255782,11.2797584 13.1722152,9.68236914 13.1722152,7.87406056 C13.1722152,4.89719877 10.6873291,2.48811989 7.67962531,2.60507517 C4.8842536,2.71303389 2.64074496,5.01315443 2.60569014,7.80608655 C2.58265411,9.64238443 3.50409516,11.2687626 4.91530216,12.2313945 C4.98641337,12.2793762 5.08256374,12.2243972 5.07655435,12.1394297 C5.05652302,11.8175528 5.05051362,11.5326617 5.06754025,11.2397737 C5.07254808,11.1438104 5.03549012,11.0498463 4.96437891,10.9838715 C4.10703811,10.1811784 3.58121577,9.03061834 3.61526903,7.76010413 C3.67636458,5.52395912 5.48218872,3.69765742 7.72068953,3.61169029 Z" id="Shape"></path>
                        </g>
                    </g>
                </g>
                <rect id="Rectangle-Copy-23" stroke="#777878" stroke-width="0.6" x="0.3" y="0.3" width="132.4" height="33.4" rx="8"></rect>
            </g>
        </g>
    </g>
</svg>