<?xml version="1.0" encoding="UTF-8"?>
<svg width="136px" height="34px" viewBox="0 0 136 34" version="1.1" xmlns="http://www.w3.org/2000/svg" xmlns:xlink="http://www.w3.org/1999/xlink">
    <title>google@1x</title>
    <g id="podcast" stroke="none" stroke-width="1" fill="none" fill-rule="evenodd">
        <g id="podcast-mock-up-copy-14" transform="translate(-1199.000000, -179.000000)">
            <g id="google" transform="translate(1199.000000, 179.000000)">
                <g id="EN_Google_Podcasts_Badge-Copy-3" transform="translate(5.205567, 5.194444)">
                    <g id="logo_podcasts_192px" transform="translate(0.000000, 0.000000)">
                        <rect id="Rectangle-path" x="0" y="0" width="24.5717345" height="24.5192308"></rect>
                        <path d="M2.43157789,10.0886418 C1.65347297,10.0886418 1.02382227,10.7169471 1.02382227,11.4933894 L1.02382227,13.0258413 C1.02382227,13.8022837 1.65347297,14.4305889 2.43157789,14.4305889 C3.20968282,14.4305889 3.83933351,13.8022837 3.83933351,13.0258413 L3.83933351,11.4933894 C3.83933351,10.7169471 3.20968282,10.0886418 2.43157789,10.0886418 Z" id="Shape" fill="#0066D9" fill-rule="nonzero"></path>
                        <path d="M22.1401566,10.0886418 C21.3620517,10.0886418 20.732401,10.7169471 20.732401,11.4933894 L20.732401,13.0258413 C20.732401,13.8022837 21.3620517,14.4305889 22.1401566,14.4305889 C22.9182615,14.4305889 23.5479122,13.8022837 23.5479122,13.0258413 L23.5479122,11.4933894 C23.5479122,10.7169471 22.9182615,10.0886418 22.1401566,10.0886418 Z" id="Shape" fill="#4285F4" fill-rule="nonzero"></path>
                        <path d="M7.29473367,14.6859976 C6.51662875,14.6859976 5.88697805,15.3143029 5.88697805,16.0907452 L5.88697805,17.6231971 C5.88697805,18.3996394 6.51662875,19.0279447 7.29473367,19.0279447 C8.0728386,19.0279447 8.70248929,18.3996394 8.70248929,17.6231971 L8.70248929,16.0907452 C8.70248929,15.3143029 8.0728386,14.6859976 7.29473367,14.6859976 Z" id="Shape" fill="#EA4335" fill-rule="nonzero"></path>
                        <path d="M7.29473367,5.49128606 C6.51662875,5.49128606 5.88697805,6.11959135 5.88697805,6.89603365 L5.88697805,11.9084284 L5.88825783,11.9084284 C5.90617472,12.6695462 6.52814675,13.28125 7.29473367,13.28125 C8.0613206,13.28125 8.68329263,12.6695462 8.70120952,11.9084284 L8.70248929,11.9084284 L8.70248929,6.89603365 C8.70248929,6.11959135 8.0728386,5.49128606 7.29473367,5.49128606 Z" id="Shape" fill="#EA4335" fill-rule="nonzero"></path>
                        <path d="M17.2770008,5.49128606 C16.4988959,5.49128606 15.8692452,6.11959135 15.8692452,6.89603365 L15.8692452,8.42848558 C15.8692452,9.20492788 16.4988959,9.83323317 17.2770008,9.83323317 C18.0551057,9.83323317 18.6847564,9.20492788 18.6847564,8.42848558 L18.6847564,6.89603365 C18.6847564,6.11959135 18.0551057,5.49128606 17.2770008,5.49128606 Z" id="Shape" fill="#34A853" fill-rule="nonzero"></path>
                        <path d="M12.2858672,1.02163462 C11.5077623,1.02163462 10.8781116,1.6499399 10.8781116,2.42638221 L10.8781116,3.95883413 C10.8781116,4.73527644 11.5077623,5.36358173 12.2858672,5.36358173 C13.0639722,5.36358173 13.6936229,4.73527644 13.6936229,3.95883413 L13.6936229,2.42638221 C13.6936229,1.6499399 13.0639722,1.02163462 12.2858672,1.02163462 Z" id="Shape" fill="#FAB908" fill-rule="nonzero"></path>
                        <path d="M12.2858672,19.155649 C11.5077623,19.155649 10.8781116,19.7839543 10.8781116,20.5603966 L10.8781116,22.0928486 C10.8781116,22.8692909 11.5077623,23.4975962 12.2858672,23.4975962 C13.0639722,23.4975962 13.6936229,22.8692909 13.6936229,22.0928486 L13.6936229,20.5603966 C13.6936229,19.7839543 13.0639722,19.155649 12.2858672,19.155649 Z" id="Shape" fill="#FAB908" fill-rule="nonzero"></path>
                        <path d="M17.2770008,11.2379808 C16.4988959,11.2379808 15.8692452,11.8662861 15.8692452,12.6427284 L15.8692452,17.6231971 C15.8692452,18.3996394 16.4988959,19.0279447 17.2770008,19.0279447 C18.0551057,19.0279447 18.6847564,18.3996394 18.6847564,17.6231971 L18.6847564,12.6427284 C18.6847564,11.8662861 18.0551057,11.2379808 17.2770008,11.2379808 Z" id="Shape" fill="#34A853" fill-rule="nonzero"></path>
                        <path d="M13.6936229,8.17307692 C13.6936229,7.39663462 13.0639722,6.76832933 12.2858672,6.76832933 C11.5077623,6.76832933 10.8781116,7.39663462 10.8781116,8.17307692 L10.8781116,8.17307692 L10.8781116,11.5789513 L10.8781116,12.9415565 L10.8781116,16.3461538 L10.8781116,16.3461538 C10.8781116,17.1225962 11.5077623,17.7509014 12.2858672,17.7509014 C13.0639722,17.7509014 13.6936229,17.1225962 13.6936229,16.3461538 L13.6936229,16.3461538 L13.6936229,12.9402795 L13.6936229,11.5789513 L13.6936229,8.17307692 L13.6936229,8.17307692 Z" id="Shape" fill="#FAB908" fill-rule="nonzero"></path>
                    </g>
                    <g id="Group" transform="translate(30.032120, 10.701686)">
                        <polygon id="Rectangle-path" points="0 0.413698959 92.7537473 0.413698959 92.7537473 14.6530152 0 14.6530152"></polygon>
                        <path d="M45.8162741,10.2395537 L45.8162741,6.5271605 L47.8165953,6.5271605 C48.3262313,6.5271605 48.7976445,6.41273742 49.2308351,6.18389127 C49.6640257,5.95504511 50.0101534,5.63508429 50.2692184,5.22400879 C50.5282834,4.81293329 50.6578158,4.34888414 50.6578158,3.83186135 C50.6578158,3.31483856 50.5282834,2.85078942 50.2692184,2.43971392 C50.0101534,2.02863842 49.6640257,1.70867759 49.2308351,1.47983144 C48.7976445,1.25098528 48.3262313,1.13656221 47.8165953,1.13656221 L47.8165953,1.13656221 L44.7460385,1.13656221 L44.7460385,10.2395537 L45.8162741,10.2395537 Z M47.8420771,5.49735281 L45.8162741,5.49735281 L45.8162741,2.1663699 L47.8420771,2.1663699 C48.1818344,2.1663699 48.4812455,2.24688985 48.7403105,2.40792973 C48.9993755,2.56896961 49.2011063,2.77662631 49.3455032,3.03089981 C49.4899001,3.28517332 49.5620985,3.5521605 49.5620985,3.83186135 C49.5620985,4.11156221 49.4899001,4.37854939 49.3455032,4.63282289 C49.2011063,4.8870964 48.9993755,5.09475309 48.7403105,5.25579298 C48.4812455,5.41683286 48.1818344,5.49735281 47.8420771,5.49735281 L47.8420771,5.49735281 Z M54.2380086,10.4429725 C54.8750535,10.4429725 55.448394,10.2904084 55.95803,9.98528016 C56.467666,9.68015195 56.8647573,9.26483859 57.1493041,8.73933999 C57.4338509,8.21384138 57.5761242,7.63325024 57.5761242,6.99756648 C57.5761242,6.36188272 57.4338509,5.78129156 57.1493041,5.25579298 C56.8647573,4.7302944 56.467666,4.31498101 55.95803,4.00985281 C55.448394,3.7047246 54.8750535,3.5521605 54.2380086,3.5521605 C53.6009636,3.5521605 53.0276231,3.7047246 52.5179872,4.00985281 C52.0083512,4.31498101 51.6112598,4.7302944 51.3267131,5.25579298 C51.0421663,5.78129156 50.8998929,6.36188272 50.8998929,6.99756648 C50.8998929,7.63325024 51.0421663,8.21384138 51.3267131,8.73933999 C51.6112598,9.26483859 52.0083512,9.68015195 52.5179872,9.98528016 C53.0276231,10.2904084 53.6009636,10.4429725 54.2380086,10.4429725 Z M54.2380086,9.46401947 C53.8387937,9.46401947 53.4650607,9.36442899 53.1168094,9.1652481 C52.7685581,8.96606722 52.4903819,8.68000953 52.2822805,8.30707503 C52.0741791,7.93414052 51.9701285,7.49763774 51.9701285,6.99756648 C51.9701285,6.49749525 52.0741791,6.06099241 52.2822805,5.68805793 C52.4903819,5.31512346 52.7685581,5.02906577 53.1168094,4.82988486 C53.4650607,4.63070395 53.8387937,4.53111349 54.2380086,4.53111349 C54.6372234,4.53111349 55.008833,4.63070395 55.3528373,4.82988486 C55.6968415,5.02906577 55.9728943,5.31512346 56.1809957,5.68805793 C56.3890971,6.06099241 56.4931478,6.49749525 56.4931478,6.99756648 C56.4931478,7.49763774 56.3890971,7.93414052 56.1809957,8.30707503 C55.9728943,8.68000953 55.6968415,8.96606722 55.3528373,9.1652481 C55.008833,9.36442899 54.6372234,9.46401947 54.2380086,9.46401947 Z M61.4111349,10.4429725 C61.912277,10.4429725 62.3582085,10.3306683 62.7489293,10.1060601 C63.1396502,9.88145184 63.4369379,9.60810782 63.6407923,9.28602802 L63.6407923,9.28602802 L63.6917559,9.28602802 L63.6917559,10.2395537 L64.7237687,10.2395537 L64.7237687,1.13656221 L63.6407923,1.13656221 L63.6407923,3.81914768 L63.6917559,4.72181862 L63.6407923,4.72181862 C63.4369379,4.39126306 63.1396502,4.11368115 62.7489293,3.88907289 C62.3582085,3.66446463 61.912277,3.5521605 61.4111349,3.5521605 C60.8335474,3.5521605 60.3090471,3.70048671 59.8376338,3.99713913 C59.3662206,4.29379156 58.994611,4.70486705 58.7228051,5.23036563 C58.4509993,5.7558642 58.3150964,6.34493115 58.3150964,6.99756648 C58.3150964,7.65867759 58.4509993,8.24986349 58.7228051,8.77112417 C58.994611,9.29238486 59.3662206,9.70134138 59.8376338,9.99799383 C60.3090471,10.2946463 60.8335474,10.4429725 61.4111349,10.4429725 Z M61.5385439,9.46401947 C61.1648108,9.46401947 60.8123126,9.36231007 60.4810493,9.15889127 C60.1497859,8.95547246 59.8843504,8.66517685 59.684743,8.28800451 C59.4851356,7.91083218 59.3853319,7.48068614 59.3853319,6.99756648 C59.3853319,6.51444682 59.4851356,6.08430081 59.684743,5.70712845 C59.8843504,5.32995608 60.1497859,5.0396605 60.4810493,4.83624169 C60.8123126,4.63282289 61.1648108,4.53111349 61.5385439,4.53111349 C61.9207709,4.53111349 62.2753926,4.63282289 62.602409,4.83624169 C62.9294254,5.0396605 63.1927374,5.32783713 63.3923448,5.70077161 C63.5919521,6.07370608 63.6917559,6.50597104 63.6917559,6.99756648 C63.6917559,7.48916189 63.5919521,7.92142685 63.3923448,8.29436135 C63.1927374,8.66729586 62.9294254,8.95547246 62.602409,9.15889127 C62.2753926,9.36231007 61.9207709,9.46401947 61.5385439,9.46401947 Z M69.0301927,10.4429725 C69.7266952,10.4429725 70.319147,10.2776947 70.8075482,9.94713913 C71.2959494,9.61658357 71.650571,9.18431862 71.8714133,8.65034426 L71.8714133,8.65034426 L70.9031049,8.24350665 C70.7417202,8.63339266 70.4953961,8.93428304 70.1641328,9.14617759 C69.8328694,9.35807215 69.4379015,9.46401947 68.9792291,9.46401947 C68.5970021,9.46401947 68.240257,9.36019115 67.9089936,9.15253443 C67.5777302,8.9448777 67.3122948,8.65458218 67.1126874,8.28164768 C66.91308,7.90871317 66.8132762,7.48068614 66.8132762,6.99756648 C66.8132762,6.51444682 66.91308,6.08641976 67.1126874,5.71348528 C67.3122948,5.34055081 67.5777302,5.05025523 67.9089936,4.84259853 C68.240257,4.63494183 68.5970021,4.53111349 68.9792291,4.53111349 C69.4294076,4.53111349 69.813758,4.63494183 70.1322805,4.84259853 C70.450803,5.05025523 70.6907566,5.35326448 70.8521413,5.75162631 L70.8521413,5.75162631 L71.8331906,5.3447887 C71.6293362,4.80233856 71.2874554,4.36795465 70.8075482,4.04163699 C70.327641,3.71531933 69.7351892,3.5521605 69.0301927,3.5521605 C68.4016417,3.5521605 67.8367952,3.70048671 67.3356531,3.99713913 C66.834511,4.29379156 66.4437901,4.70486705 66.1634904,5.23036563 C65.8831906,5.7558642 65.7430407,6.34493115 65.7430407,6.99756648 C65.7430407,7.65020184 65.8831906,8.23714981 66.1634904,8.7584105 C66.4437901,9.27967118 66.834511,9.69074671 67.3356531,9.99163699 C67.8367952,10.2925273 68.4016417,10.4429725 69.0301927,10.4429725 Z M74.8782655,10.4429725 C75.3454318,10.4429725 75.7658815,10.3327873 76.1396146,10.1124169 C76.5133476,9.89204651 76.7936474,9.62505933 76.9805139,9.31145537 L76.9805139,9.31145537 L77.0314775,9.31145537 L77.0314775,10.2395537 L78.0634904,10.2395537 L78.0634904,6.13303657 C78.0634904,5.33631292 77.8107958,4.706986 77.3054069,4.2450558 C76.8000179,3.78312559 76.1056389,3.5521605 75.2222698,3.5521605 C74.6786581,3.5521605 74.1838865,3.66234568 73.737955,3.88271605 C73.2920236,4.10308643 72.9416488,4.40821463 72.6868308,4.79810067 L72.6868308,4.79810067 L73.5022484,5.40835708 C73.680621,5.12865622 73.9226981,4.9104048 74.2284797,4.75360281 C74.5342612,4.59680081 74.8697716,4.51839981 75.2350107,4.51839981 C75.7531406,4.51839981 76.1820843,4.66460708 76.5218415,4.95702161 C76.8615988,5.24943614 77.0314775,5.63720323 77.0314775,6.12032289 L77.0314775,6.12032289 L77.0314775,6.51444682 C76.8531049,6.40426164 76.5961635,6.30679012 76.2606531,6.22203229 C75.9251427,6.13727446 75.5620271,6.09489554 75.1713062,6.09489554 C74.3813704,6.09489554 73.7273376,6.28771961 73.2092077,6.67336776 C72.6910778,7.05901594 72.4320128,7.59510922 72.4320128,8.28164768 C72.4320128,8.69696104 72.53394,9.06777662 72.7377944,9.39409426 C72.9416488,9.72041189 73.2304425,9.9768044 73.6041756,10.1632716 C73.9779087,10.3497388 74.4026053,10.4429725 74.8782655,10.4429725 Z M74.9801927,9.48944682 C74.56399,9.48944682 74.2199858,9.37926167 73.9481799,9.15889127 C73.676374,8.93852087 73.5404711,8.65034426 73.5404711,8.29436135 C73.5404711,7.90447534 73.6912384,7.58663346 73.992773,7.34083571 C74.2943076,7.09503796 74.7423626,6.97213913 75.3369379,6.97213913 C75.6682013,6.97213913 75.9824768,7.01451808 76.2797645,7.09927588 C76.5770521,7.18403369 76.8276231,7.29421893 77.0314775,7.42983144 C77.0314775,7.80276594 76.9380442,8.14603517 76.7511777,8.45963913 C76.5643112,8.77324309 76.3137402,9.02327876 75.9994647,9.20974597 C75.6851892,9.39621317 75.3454318,9.48944682 74.9801927,9.48944682 Z M81.5927195,10.4429725 C82.0683798,10.4429725 82.5015703,10.3624525 82.8922912,10.2014126 C83.2830122,10.0403728 83.5930407,9.80940762 83.8223769,9.50851734 C84.0517131,9.20762705 84.1663812,8.85800098 84.1663812,8.45963913 C84.1663812,8.00194682 84.0049965,7.61417973 83.682227,7.29633785 C83.3594576,6.97849597 82.8795503,6.73905505 82.2425054,6.5780152 L82.2425054,6.5780152 L81.2996788,6.33645537 C80.9259458,6.24322175 80.645646,6.12244183 80.4587794,5.97411563 C80.2719129,5.82578942 80.1784797,5.63296534 80.1784797,5.3956434 C80.1784797,5.1413699 80.3122591,4.93159426 80.579818,4.76631648 C80.8473769,4.6010387 81.1595289,4.51839981 81.5162741,4.51839981 C82.2552463,4.51839981 82.7691292,4.80657645 83.0579229,5.38292973 L83.0579229,5.38292973 L84.0007495,4.95066477 C83.813883,4.50992403 83.4974839,4.1666548 83.0515525,3.92085708 C82.605621,3.67505936 82.0981086,3.5521605 81.529015,3.5521605 C81.0958244,3.5521605 80.6923626,3.62844255 80.3186296,3.78100665 C79.9448966,3.93357075 79.6454854,4.15182218 79.4203961,4.43576093 C79.195307,4.71969967 79.0827623,5.04813628 79.0827623,5.42107075 C79.0827623,5.90419041 79.248394,6.29831434 79.5796574,6.60344255 C79.9109208,6.90857075 80.3356174,7.12470323 80.8537473,7.25183999 L80.8537473,7.25183999 L81.6436831,7.45525879 C82.1363313,7.57391979 82.4973233,7.71588913 82.7266595,7.88116691 C82.9559957,8.04644469 83.0706638,8.26469608 83.0706638,8.53592118 C83.0706638,8.84104939 82.926267,9.07625238 82.6374732,9.24153016 C82.3486795,9.40680793 82.0004283,9.48944682 81.5927195,9.48944682 C81.2104925,9.48944682 80.8601178,9.3834995 80.5415953,9.17160494 C80.2230728,8.95971039 79.9831193,8.65882001 79.8217345,8.268934 L79.8217345,8.268934 L78.8534261,8.70119896 C79.0487866,9.20974597 79.38005,9.62717833 79.8472163,9.95349597 C80.3143826,10.2798136 80.896217,10.4429725 81.5927195,10.4429725 Z M87.606424,10.3412631 C87.8102784,10.3412631 87.9780336,10.3285494 88.1096895,10.303122 C88.2413455,10.2776947 88.3708779,10.2353157 88.4982869,10.1759853 L88.4982869,10.1759853 L88.4982869,9.12075024 C88.2689507,9.26483859 88.0311207,9.33688272 87.7847966,9.33688272 C87.479015,9.33688272 87.2454319,9.24364907 87.0840471,9.05718187 C86.9481442,8.88766617 86.8801927,8.62491691 86.8801927,8.268934 L86.8801927,8.268934 L86.8801927,4.73453229 L88.4600642,4.73453229 L88.4600642,3.7555793 L86.8801927,3.7555793 L86.8801927,1.92481007 L85.7972163,1.92481007 L85.7972163,3.7555793 L84.6632762,3.7555793 L84.6632762,4.73453229 L85.7972163,4.73453229 L85.7972163,8.53592118 C85.7972163,8.84104939 85.839686,9.09956081 85.9246253,9.31145537 C86.0095647,9.52334993 86.1369737,9.70981722 86.3068522,9.87085708 C86.459743,10.0149454 86.6487331,10.1293685 86.8738223,10.2141263 C87.0989116,10.2988841 87.3431121,10.3412631 87.606424,10.3412631 Z M91.9892934,10.4429725 C92.4649539,10.4429725 92.8981445,10.3624525 93.2888651,10.2014126 C93.6795857,10.0403728 93.9896146,9.80940762 94.2189507,9.50851734 C94.4482869,9.20762705 94.562955,8.85800098 94.562955,8.45963913 C94.562955,8.00194682 94.4015706,7.61417973 94.0788009,7.29633785 C93.7560311,6.97849597 93.2761242,6.73905505 92.6390792,6.5780152 L92.6390792,6.5780152 L91.6962527,6.33645537 C91.3225193,6.24322175 91.0422195,6.12244183 90.8553533,5.97411563 C90.6684868,5.82578942 90.5750535,5.63296534 90.5750535,5.3956434 C90.5750535,5.1413699 90.708833,4.93159426 90.9763919,4.76631648 C91.2439507,4.6010387 91.5561028,4.51839981 91.912848,4.51839981 C92.6518201,4.51839981 93.1657034,4.80657645 93.4544968,5.38292973 L93.4544968,5.38292973 L94.3973233,4.95066477 C94.2104571,4.50992403 93.8940578,4.1666548 93.4481263,3.92085708 C93.0021949,3.67505936 92.4946821,3.5521605 91.9255889,3.5521605 C91.4923983,3.5521605 91.0889368,3.62844255 90.7152034,3.78100665 C90.3414704,3.93357075 90.0420593,4.15182218 89.81697,4.43576093 C89.5918808,4.71969967 89.4793362,5.04813628 89.4793362,5.42107075 C89.4793362,5.90419041 89.6449679,6.29831434 89.9762313,6.60344255 C90.3074946,6.90857075 90.7321913,7.12470323 91.2503212,7.25183999 L91.2503212,7.25183999 L92.040257,7.45525879 C92.5329048,7.57391979 92.8938972,7.71588913 93.1232334,7.88116691 C93.3525696,8.04644469 93.4672377,8.26469608 93.4672377,8.53592118 C93.4672377,8.84104939 93.3228405,9.07625238 93.0340471,9.24153016 C92.7452537,9.40680793 92.3970021,9.48944682 91.9892934,9.48944682 C91.6070664,9.48944682 91.2566916,9.3834995 90.9381692,9.17160494 C90.6196467,8.95971039 90.3796931,8.65882001 90.2183084,8.268934 L90.2183084,8.268934 L89.25,8.70119896 C89.4453605,9.20974597 89.7766239,9.62717833 90.2437901,9.95349597 C90.7109565,10.2798136 91.2927912,10.4429725 91.9892934,10.4429725 Z" id="Podcasts" fill="#3C4043" fill-rule="nonzero"></path>
                        <path d="M28.7774447,3.6587132 C29.5801213,3.6587132 30.214335,4.01469611 30.5413515,4.41023267 L30.5908994,4.41023267 L30.5908994,3.8663699 L31.9980609,3.8663699 L31.9980609,9.86863727 C31.9980609,12.3407408 30.5413515,13.3493589 28.817083,13.3493589 C27.1919105,13.3493589 26.2108613,12.2616335 25.8442065,11.3716762 L27.1225434,10.8377018 C27.3504639,11.3815646 27.9054009,12.0243115 28.8071734,12.0243115 C29.9071378,12.0243115 30.5908994,11.3420109 30.5908994,10.0664055 L30.5908994,9.58187324 L30.5413515,9.58187324 C30.214335,9.98729818 29.5801213,10.3432811 28.7774447,10.3432811 C27.1027242,10.3432811 25.566738,8.87979586 25.566738,7.0108856 C25.566738,5.12219849 27.1027242,3.6587132 28.7774447,3.6587132 Z M14.2598977,3.75759734 C16.1129907,3.75759734 17.6192481,5.16175214 17.6192481,7.09988133 C17.6192481,9.02812204 16.1129907,10.4421652 14.2598977,10.4421652 C12.4068047,10.4421652 10.9005472,9.02812204 10.9005472,7.09988133 C10.9005472,5.16175214 12.4068047,3.75759734 14.2598977,3.75759734 Z M21.5929931,3.75759734 C23.4460861,3.75759734 24.9523435,5.16175214 24.9523435,7.09988133 C24.9523435,9.02812204 23.4460861,10.4421652 21.5929931,10.4421652 C19.7399001,10.4421652 18.2336427,9.02812204 18.2336427,7.09988133 C18.2336427,5.16175214 19.7399001,3.75759734 21.5929931,3.75759734 Z M38.3401975,3.75759734 C40.0743755,3.75759734 40.9266,5.1320869 41.2040685,5.88360636 L41.3527123,6.2593661 L36.8735784,8.1084995 C37.220414,8.77102328 37.7456222,9.11711776 38.4987509,9.11711776 C39.2518796,9.11711776 39.7671782,8.75124643 40.1536522,8.19749523 L41.2932548,8.95890316 C40.9166904,9.50276594 40.0347371,10.4421652 38.4987509,10.4421652 C36.59611,10.4421652 35.1790388,8.96879158 35.1790388,7.09988133 C35.1790388,5.11231007 36.6159291,3.75759734 38.3401975,3.75759734 Z M5.57909826,0 C7.16463241,0 8.29432548,0.622970085 9.14655004,1.43382004 L8.13577207,2.43254986 C7.53128718,1.85902185 6.70879134,1.41404322 5.57909826,1.41404322 C3.48817511,1.41404322 1.85309303,3.09507361 1.85309303,5.18152897 C1.85309303,7.26798435 3.48817511,8.94901473 5.57909826,8.94901473 C6.93671187,8.94901473 7.70965977,8.40515195 8.20513919,7.91073129 C8.61143231,7.50530626 8.87899119,6.92188987 8.97808708,6.13081672 L5.57909826,6.13081672 L5.57909826,4.7167735 L10.3654295,4.7167735 C10.4149774,4.97387228 10.4447062,5.27052469 10.4447062,5.60673077 C10.4447062,6.67467945 10.1573281,7.98983859 9.21591723,8.91934946 C8.29432548,9.86863727 7.12499405,10.3729464 5.57909826,10.3729464 C2.70531763,10.3729464 0.297287652,8.04916904 0.297287652,5.19141738 C0.297287652,2.3237773 2.70531763,0 5.57909826,0 Z M34.4655485,0.395536566 L34.4655485,10.2147318 L32.9989293,10.2147318 L32.9989293,0.395536566 L34.4655485,0.395536566 Z M14.2598977,5.062868 C13.2392101,5.062868 12.3671663,5.88360636 12.3671663,7.0899929 C12.3671663,8.28649095 13.2491196,9.11711776 14.2598977,9.11711776 C15.2706757,9.11711776 16.1526291,8.28649095 16.1526291,7.0899929 C16.1526291,5.88360636 15.2706757,5.062868 14.2598977,5.062868 Z M21.5929931,5.062868 C20.5723055,5.062868 19.7002617,5.88360636 19.7002617,7.0899929 C19.7002617,8.28649095 20.5822151,9.11711776 21.5929931,9.11711776 C22.6037712,9.11711776 23.4857245,8.28649095 23.4857245,7.0899929 C23.4857245,5.88360636 22.6136807,5.062868 21.5929931,5.062868 Z M28.9062693,4.97387228 C27.8954913,4.97387228 27.0432667,5.8341643 27.0432667,7.0108856 C27.0432667,8.17771847 27.8954913,9.02812204 28.9062693,9.02812204 C29.9071378,9.02812204 30.6999049,8.1876068 30.6899953,7.0108856 C30.6899953,5.8341643 29.9071378,4.97387228 28.9062693,4.97387228 Z M38.3897455,5.04309117 C37.6366167,5.04309117 36.59611,5.70561491 36.6357483,6.99110875 L39.628444,5.75505699 C39.4698905,5.32985518 38.9744111,5.04309117 38.3897455,5.04309117 Z" id="Combined-Shape" fill="#3C4043" fill-rule="nonzero"></path>
                    </g>
                    <path d="M34.7442619,7.4465812 L34.7442619,6.7448459 L31.6535985,6.7448459 L31.6535985,0.938768697 L30.7891085,0.938768697 L30.7891085,7.4465812 L34.7442619,7.4465812 Z M36.3173648,1.79694177 C36.4786168,1.79694177 36.6010489,1.75224526 36.684661,1.66285223 C36.7682732,1.5734592 36.8100793,1.46171792 36.8100793,1.32762838 C36.8100793,1.19353883 36.7682732,1.08030765 36.684661,0.987934858 C36.6010489,0.895562061 36.4786168,0.849375668 36.3173648,0.849375668 C36.1561128,0.849375668 36.0344273,0.895562061 35.9523082,0.987934858 C35.8701891,1.08030765 35.8291296,1.19353883 35.8291296,1.32762838 C35.8291296,1.46171792 35.8701891,1.5734592 35.9523082,1.66285223 C36.0344273,1.75224526 36.1561128,1.79694177 36.3173648,1.79694177 Z M36.724974,7.4465812 L36.724974,2.61041834 L35.8963179,2.61041834 L35.8963179,7.4465812 L36.724974,7.4465812 Z M40.0628906,7.53597423 C40.615328,7.53597423 41.0647433,7.40560938 41.4111365,7.14487969 C41.7575297,6.88415009 41.9307263,6.53775212 41.9307263,6.10568576 C41.9307263,5.84644593 41.8687638,5.62668815 41.7448386,5.44641214 C41.6209134,5.26613622 41.4305466,5.11193324 41.1737378,4.98380327 C40.9169291,4.85567322 40.5817338,4.74542186 40.1681523,4.65304902 C39.7545708,4.56067627 39.4686471,4.46383385 39.3103813,4.36252175 C39.1521154,4.26120965 39.0729825,4.11073131 39.0729825,3.91108693 C39.0729825,3.69952338 39.1580877,3.52818677 39.3282982,3.39707699 C39.4985086,3.26596721 39.7344143,3.20041233 40.0360153,3.20041233 C40.3286578,3.20041233 40.5712824,3.28235593 40.7638889,3.44624316 C40.9564955,3.61013038 41.0527987,3.80530515 41.0527987,4.03176749 L41.0527987,4.03176749 L41.8859342,4.03176749 C41.8859342,3.59076189 41.7149771,3.22872011 41.3730632,2.9456422 C41.0311492,2.66256427 40.5854666,2.52102531 40.0360153,2.52102531 C39.5134394,2.52102531 39.0841805,2.65809462 38.7482388,2.93223324 C38.4122971,3.20637186 38.2443263,3.54159572 38.2443263,3.93790479 C38.2443263,4.1762862 38.3033027,4.38189021 38.4212556,4.55471674 C38.5392084,4.72754326 38.7213635,4.87653164 38.9677207,5.00168188 C39.2140779,5.12683212 39.5470335,5.23410376 39.9665873,5.32349678 C40.3861412,5.41288981 40.6802768,5.51941652 40.8489941,5.64307681 C41.0177115,5.76673718 41.1020703,5.94030864 41.1020703,6.16379126 C41.1020703,6.37535471 41.00726,6.54445658 40.8176396,6.67109668 C40.6280192,6.79773678 40.3764362,6.86105688 40.0628906,6.86105688 C39.7224697,6.86105688 39.4484906,6.77985818 39.2409533,6.61746087 C39.033416,6.45506355 38.922182,6.23530568 38.9072512,5.95818724 L38.9072512,5.95818724 L38.078595,5.95818724 C38.078595,6.24424494 38.1629537,6.51018923 38.3316712,6.75602004 C38.5003885,7.00185084 38.7340546,7.19330099 39.0326694,7.3303703 C39.3312843,7.46743962 39.6746914,7.53597423 40.0628906,7.53597423 Z M44.6549894,7.53597423 C44.8610337,7.53597423 45.0730502,7.50617655 45.2910391,7.4465812 L45.2910391,7.4465812 L45.2910391,6.77613353 C45.1238148,6.81189074 44.9924242,6.82976934 44.8968675,6.82976934 C44.7027678,6.82976934 44.565405,6.78134804 44.484779,6.68450561 C44.404153,6.58766319 44.36384,6.44239946 44.36384,6.24871461 L44.36384,6.24871461 L44.36384,3.24957849 L45.2686429,3.24957849 L45.2686429,2.61041834 L44.36384,2.61041834 L44.36384,1.43936966 L43.5351839,1.43936966 L43.5351839,2.61041834 L42.652777,2.61041834 L42.652777,3.24957849 L43.5351839,3.24957849 L43.5351839,6.24871461 C43.5351839,6.65992254 43.6292475,6.97726777 43.8173749,7.20075039 C44.0055022,7.42423292 44.2847071,7.53597423 44.6549894,7.53597423 Z M48.476662,7.53597423 C49.2888943,7.53597423 49.8980686,7.22458853 50.3041847,6.60181705 L50.3041847,6.60181705 L49.7980327,6.20848772 C49.645739,6.40515239 49.4680632,6.56308012 49.2650051,6.68227082 C49.061947,6.80146153 48.8140968,6.86105688 48.5214542,6.86105688 C48.1093658,6.86105688 47.7696914,6.71430329 47.5024311,6.4207962 C47.2351709,6.12728911 47.0955684,5.74215411 47.0836238,5.26539129 L47.0836238,5.26539129 L50.3668939,5.26539129 L50.3668939,4.92122811 C50.3668939,4.14946834 50.1922042,3.55649455 49.8428248,3.14230686 C49.4934455,2.72811916 49.0037172,2.52102531 48.3736399,2.52102531 C47.9884268,2.52102531 47.6308355,2.627552 47.3008662,2.84060538 C46.9708967,3.05365877 46.714088,3.34865577 46.5304399,3.7255964 C46.3467918,4.10253699 46.2549676,4.5308786 46.2549676,5.01062114 L46.2549676,5.01062114 L46.2549676,5.16258933 C46.2549676,5.8836931 46.4610119,6.45953314 46.8731004,6.89010963 C47.2851888,7.32068603 47.8197093,7.53597423 48.476662,7.53597423 Z M49.5382377,4.58600427 L47.1104992,4.58600427 C47.1642499,4.14797848 47.3045988,3.80753995 47.5315461,3.56468892 C47.7584933,3.32183786 48.0391913,3.20041233 48.3736399,3.20041233 C48.7200331,3.20041233 48.9947587,3.31587832 49.1978168,3.54681031 C49.4008749,3.77774227 49.5143485,4.10328192 49.5382377,4.52342911 L49.5382377,4.52342911 L49.5382377,4.58600427 Z M52.3834398,7.4465812 L52.3834398,4.00047996 C52.4969134,3.76805808 52.6551793,3.5803327 52.8582374,3.43730386 C53.0612955,3.294275 53.2972012,3.22276058 53.5659545,3.22276058 C53.897417,3.22276058 54.1415347,3.30619407 54.2983074,3.47306107 C54.4550802,3.63992803 54.5349596,3.89767791 54.5379458,4.24631076 L54.5379458,4.24631076 L54.5379458,7.4465812 L55.366602,7.4465812 L55.366602,4.25078044 C55.3576435,3.09761035 54.8410399,2.52102531 53.816791,2.52102531 C53.2195613,2.52102531 52.7358053,2.75344718 52.3655229,3.21829093 L52.3655229,3.21829093 L52.3386476,2.61041834 L51.5547836,2.61041834 L51.5547836,7.4465812 L52.3834398,7.4465812 Z M61.3347179,7.53597423 C61.7706956,7.53597423 62.1566553,7.4316824 62.4925969,7.22309867 C62.8285386,7.01451494 63.0868404,6.72324264 63.2675024,6.34928178 C63.4481644,5.97532092 63.5384953,5.55293885 63.5384953,5.08213556 L63.5384953,5.08213556 L63.5384953,5.02403016 C63.5384953,4.26716918 63.3346907,3.66078645 62.9270815,3.20488198 C62.5194722,2.74897754 61.9856982,2.52102531 61.3257595,2.52102531 C60.8987403,2.52102531 60.5187528,2.62382729 60.1857974,2.82943125 C59.8528418,3.03503522 59.5930469,3.32705246 59.4064126,3.70548292 C59.2197784,4.08391345 59.1264612,4.51002018 59.1264612,4.98380327 L59.1264612,4.98380327 L59.1264612,5.04190877 C59.1264612,5.79281012 59.3302658,6.39621313 59.7378751,6.85211753 C60.1454844,7.30802202 60.6777653,7.53597423 61.3347179,7.53597423 Z M61.3347179,6.86105688 C60.9166571,6.86105688 60.5829551,6.69865957 60.3336117,6.37386485 C60.0842683,6.04907013 59.9595966,5.61849373 59.9595966,5.08213556 C59.9595966,4.47724278 60.0850149,4.01239903 60.3358513,3.68760431 C60.5866878,3.36280967 60.9166571,3.20041233 61.3257595,3.20041233 C61.7438203,3.20041233 62.0790154,3.36504449 62.3313449,3.69430878 C62.5836744,4.02357317 62.7098392,4.45340464 62.7098392,4.98380327 C62.7098392,5.57677699 62.5859141,6.03789608 62.3380637,6.36716038 C62.0902135,6.69642468 61.7557649,6.86105688 61.3347179,6.86105688 Z M65.6356673,7.4465812 L65.6356673,4.00047996 C65.7491409,3.76805808 65.9074068,3.5803327 66.1104648,3.43730386 C66.3135229,3.294275 66.5494287,3.22276058 66.818182,3.22276058 C67.1496444,3.22276058 67.3937621,3.30619407 67.5505348,3.47306107 C67.7073077,3.63992803 67.7871871,3.89767791 67.7901732,4.24631076 L67.7901732,4.24631076 L67.7901732,7.4465812 L68.6188294,7.4465812 L68.6188294,4.25078044 C68.609871,3.09761035 68.0932673,2.52102531 67.0690185,2.52102531 C66.4717888,2.52102531 65.9880328,2.75344718 65.6177504,3.21829093 L65.6177504,3.21829093 L65.590875,2.61041834 L64.8070111,2.61041834 L64.8070111,7.4465812 L65.6356673,7.4465812 Z" id="Listenon" fill="#5F6368" fill-rule="nonzero"></path>
                </g>
                <rect id="Rectangle-Copy-20" stroke="#777878" stroke-width="0.6" x="0.3" y="0.3" width="135.4" height="33.4" rx="8"></rect>
            </g>
        </g>
    </g>
</svg>