<?xml version="1.0" encoding="UTF-8"?>
<svg width="72px" height="72px" viewBox="0 0 72 72" version="1.1" xmlns="http://www.w3.org/2000/svg" xmlns:xlink="http://www.w3.org/1999/xlink">
    <title>icon-live-chat-dark</title>
    <g id="icon-live-chat-dark" stroke="none" stroke-width="1" fill="none" fill-rule="evenodd">
        <rect id="Rectangle" x="0" y="0" width="72" height="72"></rect>
        <rect id="Rectangle" x="0" y="0" width="72" height="72"></rect>
        <path d="M20.5,70 C18.8431458,70 17.5,68.6568542 17.5,67 L17.5,54.5 L6.91,54.5 C4.21058163,54.4891376 2.0218803,52.3093515 2,49.61 L2,6.91 C2.0108624,4.21058163 4.19064845,2.0218803 6.89,2 L65.09,2 C67.7894184,2.0108624 69.9781197,4.19064845 70,6.89 L70,49.59 C69.9891376,52.2894184 67.8093515,54.4781197 65.11,54.5 L34.11,54.5 L22.86,68.85 C22.2917163,69.5754599 21.4215412,70 20.5,70 Z M20.5,48.5 C22.1568542,48.5 23.5,49.8431458 23.5,51.5 L23.5,58.28 L30.24,49.65 C30.8082837,48.9245401 31.6784588,48.5005141 32.6,48.5 L64,48.5 L64,8 L8,8 L8,48.5 L20.5,48.5 Z" id="Shape" fill="#446CA9" fill-rule="nonzero"></path>
        <path d="M48.7122654,44 C55.6905217,44 62.5244247,48.1817306 66.2135358,54.3661569 C65.8587541,54.4510168 65.4895121,54.4969238 65.11,54.5 L34.11,54.5 L22.86,68.85 C22.2917163,69.5754599 21.4215412,70 20.5,70 C19.9299355,70 19.3970078,69.840998 18.9431465,69.5649234 L18.7528521,64.8492553 C18.7681057,64.482334 18.5985017,64.1326772 18.3025603,63.9209308 C18.0569872,63.7743379 17.7659998,63.7403886 17.4993918,63.8190828 L17.5,54.5 L8.63221269,54.5000653 C12.3021157,48.2421707 19.1841809,44 26.212686,44 L48.7122654,44 Z" id="Path" fill="#446CA9" fill-rule="nonzero"></path>
        <path d="M48,26.4503511 C48,34.7552658 42.8433121,43 36.5,43 C30.1566879,43 25,34.6950853 25,26.4503511 C25,18.2056169 30.2006369,13 36.5,13 C42.7993631,13 48,18.1454363 48,26.4503511 Z" id="Path-Copy-2" fill="#446CA9" fill-rule="nonzero"></path>
    </g>
</svg>