<?xml version="1.0" encoding="UTF-8"?><svg id="US_ListenOn_AmazonMusic_button_white_RGB" xmlns="http://www.w3.org/2000/svg" viewBox="0 0 164.86 40"><defs><style>.cls-1,.cls-2{fill:#14191a;}.cls-1,.cls-2,.cls-3{stroke-width:0px;}.cls-2{fill-rule:evenodd;}.cls-3{fill:#fff;}</style></defs><g id="US"><path class="cls-1" d="m155.33,0H9.53c-.37,0-.73,0-1.09,0-.31,0-.61,0-.92.01-.67.02-1.34.06-2,.18-.67.12-1.29.32-1.9.63-.6.31-1.15.7-1.62,1.18-.48.47-.88,1.02-1.18,1.62-.31.61-.51,1.23-.62,1.9-.12.66-.16,1.33-.18,2,0,.31-.01.61-.02.92v23.11c0,.31,0,.61.02.92.02.67.06,1.34.18,2,.12.67.31,1.3.62,1.9.3.6.7,1.14,1.18,1.61.47.48,1.02.88,1.62,1.18.61.31,1.23.51,1.9.63.66.12,1.34.16,2,.18.31,0,.61.01.92.01.37,0,.73,0,1.09,0h145.79c.36,0,.72,0,1.08,0,.3,0,.62,0,.92-.01.67-.02,1.34-.06,2-.18.67-.12,1.29-.32,1.91-.63.6-.3,1.14-.7,1.62-1.18.48-.47.87-1.02,1.18-1.61.31-.61.51-1.23.62-1.9.12-.66.16-1.33.19-2,0-.31,0-.61,0-.92,0-.36,0-.72,0-1.09V9.54c0-.37,0-.73,0-1.09,0-.31,0-.61,0-.92-.02-.67-.06-1.34-.19-2-.11-.67-.31-1.29-.62-1.9-.31-.6-.71-1.15-1.18-1.62-.47-.47-1.02-.87-1.62-1.18-.62-.31-1.24-.51-1.91-.63-.66-.12-1.33-.16-2-.18-.3,0-.62-.01-.92-.01-.36,0-.72,0-1.08,0h0Z"/><path class="cls-3" d="m8.44,39.12c-.3,0-.6,0-.9-.01-.56-.02-1.22-.05-1.87-.16-.61-.11-1.15-.29-1.66-.55-.52-.26-.99-.61-1.4-1.02-.41-.41-.75-.87-1.02-1.4-.26-.5-.44-1.05-.54-1.66-.12-.67-.15-1.36-.17-1.88,0-.21-.01-.91-.01-.91V8.44s0-.69.01-.89c.01-.52.04-1.21.17-1.87.11-.61.28-1.16.54-1.66.27-.52.61-.99,1.02-1.4.41-.41.88-.76,1.4-1.02.51-.26,1.06-.44,1.65-.54.67-.12,1.36-.15,1.88-.16h.9s147.96-.01,147.96-.01h.91c.51.03,1.2.06,1.86.18.6.11,1.15.28,1.67.55.51.26.98.61,1.39,1.02.41.41.75.88,1.02,1.4.26.51.43,1.05.54,1.65.12.63.15,1.28.17,1.89,0,.28,0,.59,0,.89,0,.38,0,.73,0,1.09v20.93c0,.36,0,.72,0,1.08,0,.33,0,.62,0,.93-.02.59-.06,1.24-.17,1.85-.1.61-.28,1.16-.54,1.67-.27.52-.61.99-1.02,1.39-.41.42-.88.76-1.4,1.02-.52.26-1.05.44-1.67.55-.64.12-1.3.15-1.87.16-.29,0-.6.01-.9.01h-1.08s-146.88,0-146.88,0Z"/></g><path class="cls-2" d="m63.3,19.19v-1.19c0-.18.14-.3.3-.3h5.28c.17,0,.3.12.3.3v1.02c0,.17-.14.39-.4.75l-2.74,3.94c1.02-.02,2.09.13,3.01.65.21.12.26.29.28.46v1.27c0,.17-.19.38-.39.27-1.63-.86-3.78-.95-5.58.01-.18.1-.38-.1-.38-.28v-1.21c0-.19,0-.52.2-.82l3.17-4.59h-2.76c-.17,0-.3-.12-.31-.3h0Zm-19.28,7.42h-1.61c-.15,0-.27-.13-.29-.27v-8.32c0-.17.14-.3.31-.3h1.5c.16,0,.28.13.29.28v1.09h.03c.39-1.05,1.13-1.54,2.12-1.54s1.64.49,2.09,1.54c.39-1.05,1.28-1.54,2.22-1.54.68,0,1.41.28,1.86.91.51.7.41,1.71.41,2.61v5.25c0,.17-.14.3-.31.3h-1.61c-.16-.01-.29-.14-.29-.3v-4.41c0-.35.03-1.22-.05-1.56-.12-.56-.48-.72-.95-.72-.39,0-.8.26-.96.68-.17.42-.15,1.12-.15,1.59v4.41c0,.17-.14.3-.31.3h-1.61c-.16-.01-.29-.14-.29-.3v-4.41c0-.93.15-2.29-.99-2.29s-1.11,1.33-1.11,2.29v4.41c0,.17-.14.3-.31.3h0Zm29.71-9.06c2.39,0,3.68,2.07,3.68,4.69s-1.43,4.55-3.68,4.55-3.62-2.07-3.62-4.64,1.29-4.6,3.62-4.6h0Zm.01,1.7c-1.19,0-1.26,1.63-1.26,2.64s-.01,3.18,1.25,3.18,1.31-1.75,1.31-2.82c0-.7-.03-1.54-.24-2.21-.18-.58-.54-.8-1.05-.8h0Zm6.76,7.37h-1.6c-.16-.01-.29-.14-.29-.3v-8.32c.01-.15.14-.27.31-.27h1.49c.14,0,.26.1.29.23v1.27h.03c.45-1.14,1.08-1.68,2.19-1.68.72,0,1.43.26,1.88.98.42.66.42,1.78.42,2.59v5.23c-.02.15-.15.26-.31.26h-1.61c-.15,0-.27-.12-.29-.26v-4.52c0-.91.11-2.24-1.01-2.24-.39,0-.75.26-.93.66-.23.51-.26,1.02-.26,1.58v4.48c0,.17-.14.3-.31.3h0Zm-19.8-.02c-.11.1-.26.1-.38.04-.53-.45-.63-.65-.92-1.08-.88.91-1.51,1.18-2.65,1.18-1.35,0-2.41-.84-2.41-2.53,0-1.32.71-2.21,1.71-2.65.87-.39,2.09-.46,3.02-.56v-.21c0-.39.03-.84-.2-1.17-.2-.3-.57-.42-.9-.42-.61,0-1.16.32-1.29.97-.03.15-.13.29-.28.3l-1.56-.17c-.13-.03-.28-.14-.24-.34.36-1.91,2.07-2.48,3.6-2.48.78,0,1.8.21,2.42.81.78.74.71,1.72.71,2.79v2.52c0,.76.31,1.09.61,1.5.1.15.13.32,0,.43-.33.28-.91.79-1.23,1.08h0Zm-1.62-3.95v-.35c-1.16,0-2.39.25-2.39,1.63,0,.7.36,1.18.98,1.18.45,0,.86-.28,1.11-.74.32-.56.3-1.09.3-1.72h0Zm-19.46,3.95c-.11.1-.26.1-.38.04-.53-.45-.63-.65-.92-1.08-.88.91-1.51,1.18-2.65,1.18-1.35,0-2.41-.84-2.41-2.53,0-1.32.71-2.21,1.71-2.65.87-.39,2.09-.46,3.02-.56v-.21c0-.39.03-.84-.2-1.17-.2-.3-.57-.42-.9-.42-.61,0-1.16.32-1.29.97-.03.15-.13.29-.28.3l-1.56-.17c-.13-.03-.28-.14-.24-.34.36-1.91,2.07-2.48,3.6-2.48.78,0,1.8.21,2.42.81.78.74.71,1.72.71,2.79v2.52c0,.76.31,1.09.61,1.5.1.15.13.32,0,.43-.33.28-.91.79-1.23,1.08h0Zm-1.62-3.95v-.35c-1.16,0-2.39.25-2.39,1.63,0,.7.36,1.18.98,1.18.45,0,.86-.28,1.11-.74.32-.56.3-1.09.3-1.72h0Zm27.47,7.16c-3.02,2.24-7.39,3.44-11.16,3.44-5.28,0-10.04-1.97-13.63-5.24-.28-.26-.03-.61.31-.41,3.88,2.28,8.68,3.65,13.64,3.65,3.35,0,7.02-.7,10.41-2.15.51-.22.94.34.44.71h0Zm1.26-1.45c-.39-.5-2.55-.24-3.52-.12-.29.04-.34-.22-.07-.41,1.73-1.22,4.56-.87,4.89-.46.33.41-.09,3.27-1.71,4.64-.25.21-.49.1-.38-.18.36-.92,1.18-2.97.79-3.47h0Zm51.2-3.17c.29-.22.44-.54.44-.96,0-.28-.09-.51-.27-.68-.18-.18-.51-.35-.98-.52l-1.47-.56c-1.28-.48-1.93-1.29-1.93-2.45,0-.76.29-1.37.88-1.84.58-.47,1.35-.7,2.3-.7.75,0,1.49.13,2.2.4.14.05.24.11.29.18.06.08.09.19.09.34v.47c0,.21-.07.31-.23.31-.08,0-.21-.03-.4-.09-.61-.19-1.24-.28-1.87-.28-1.11,0-1.67.38-1.67,1.14,0,.3.09.54.28.72.18.18.55.37,1.09.58l1.35.53c.68.27,1.17.59,1.48.95.3.37.45.84.45,1.43,0,.83-.31,1.49-.92,1.98s-1.43.73-2.45.73-1.85-.16-2.62-.49c-.14-.06-.23-.12-.29-.19-.05-.07-.08-.18-.08-.33v-.49c0-.21.07-.31.21-.31.08,0,.23.04.43.1.76.25,1.56.37,2.38.37.57,0,1-.11,1.29-.33h0Zm-7.68-7.1c0-.23.12-.35.35-.35h1.02c.23,0,.35.12.35.35v8.17c0,.23-.12.35-.35.35h-.75c-.12,0-.21-.02-.27-.07-.06-.05-.11-.13-.13-.26l-.12-.61c-1.08.8-2.18,1.21-3.31,1.21-.82,0-1.45-.23-1.89-.7-.44-.47-.66-1.13-.66-1.98v-6.11c0-.23.12-.35.35-.35h1.02c.23,0,.35.12.35.35v5.55c0,.63.12,1.09.36,1.39.24.3.63.45,1.16.45.83,0,1.67-.28,2.52-.84v-6.54h0Zm-9.31,8.52c-.23,0-.35-.12-.35-.35v-5.67c0-.58-.11-1.01-.33-1.29-.22-.28-.57-.42-1.04-.42-.84,0-1.7.26-2.55.79.01.08.02.17.02.26v6.33c0,.23-.12.35-.35.35h-1.02c-.23,0-.35-.12-.35-.35v-5.67c0-.58-.11-1.01-.33-1.29-.22-.28-.57-.42-1.04-.42-.88,0-1.72.26-2.53.77v6.61c0,.23-.12.35-.35.35h-1.02c-.23,0-.35-.12-.35-.35v-8.17c0-.23.12-.35.35-.35h.76c.12,0,.21.02.27.07.06.05.11.13.13.26l.1.56c1.11-.77,2.19-1.15,3.25-1.15s1.81.41,2.19,1.24c1.15-.83,2.29-1.24,3.44-1.24.8,0,1.41.23,1.84.68.43.46.64,1.1.64,1.94v6.16c0,.23-.12.35-.35.35h-1.02Zm26.51-6.9c-.43.5-.64,1.29-.64,2.37v.23c0,1.06.22,1.84.65,2.34.43.5,1.12.74,2.06.74.49,0,1.01-.08,1.56-.25.13-.03.21-.05.26-.05.15,0,.23.12.23.35v.47c0,.15-.02.26-.07.33-.05.07-.14.13-.28.19-.57.24-1.23.37-1.98.37-1.37,0-2.41-.39-3.13-1.18-.72-.79-1.09-1.93-1.09-3.42s.37-2.63,1.12-3.44c.75-.81,1.8-1.22,3.17-1.22.62,0,1.24.11,1.84.33.13.05.22.1.27.18.05.07.08.19.08.35v.47c0,.23-.08.35-.23.35-.06,0-.15-.02-.28-.05-.47-.14-.96-.21-1.44-.21-.97,0-1.67.25-2.1.74h0Zm-4.59-1.97c.23,0,.35.12.35.35v8.17c0,.23-.12.35-.35.35h-1.02c-.23,0-.35-.12-.35-.35v-8.17c0-.23.12-.35.35-.35h1.02Zm.29-3.39c.19.19.29.45.29.76s-.1.57-.29.76c-.19.19-.45.29-.79.29s-.6-.1-.79-.29c-.19-.19-.29-.45-.29-.76s.1-.57.29-.76c.19-.19.45-.29.79-.29s.6.1.79.29h0Z"/><path class="cls-1" d="m33.99,12.87v-5.89h.87v5.18h2.78v.71h-3.65Z"/><path class="cls-1" d="m38.82,7.8c-.16,0-.29-.05-.39-.14s-.14-.22-.14-.37.05-.28.14-.37.22-.14.39-.14.29.05.39.14.14.22.14.37-.05.28-.14.37-.22.14-.39.14Zm-.42,5.07v-4.31h.84v4.31h-.84Z"/><path class="cls-1" d="m42.55,11.71c0-.14-.04-.25-.13-.33s-.25-.17-.48-.25l-.72-.27c-.63-.23-.94-.63-.94-1.19,0-.37.14-.67.43-.89.29-.23.66-.34,1.13-.34s.87.09,1.27.27v.59c-.44-.14-.85-.21-1.22-.21-.54,0-.82.18-.82.55,0,.15.04.26.14.35s.27.18.54.28l.66.25c.33.13.58.29.72.46.15.18.22.41.22.69,0,.4-.15.72-.45.96-.3.24-.7.36-1.2.36-.56,0-1.05-.11-1.46-.32v-.59c.53.18,1.03.26,1.48.26.28,0,.49-.05.63-.16.14-.11.22-.26.22-.47Z"/><path class="cls-1" d="m46.62,12.77c-.28.11-.59.16-.94.16-.8,0-1.21-.4-1.21-1.21v-2.5h-.78v-.54l.81-.1.13-1.22h.69v1.21h1.28v.66h-1.28v2.46c0,.21.05.36.14.44s.25.13.48.13.46-.03.69-.08v.6Z"/><path class="cls-1" d="m48.05,10.9c.01.49.13.85.36,1.08s.58.35,1.07.35c.45,0,.9-.09,1.37-.26v.6c-.41.22-.91.33-1.5.33-.7,0-1.22-.19-1.58-.58-.36-.39-.54-.96-.54-1.71s.18-1.28.54-1.68c.36-.4.86-.6,1.5-.6.54,0,.95.15,1.24.46s.43.73.43,1.29c0,.27-.02.51-.07.72h-2.82Zm1.17-1.83c-.36,0-.63.11-.83.32-.2.21-.31.53-.34.95h2.12s0-.12,0-.22c0-.34-.08-.61-.24-.78s-.4-.26-.71-.26Z"/><path class="cls-1" d="m54.86,12.87v-2.88c0-.3-.06-.52-.18-.66-.12-.14-.31-.21-.57-.21-.45,0-.89.14-1.32.43v3.32h-.84v-4.31h.71l.08.48c.54-.4,1.1-.6,1.7-.6.41,0,.73.11.94.33.22.22.32.53.32.95v3.16h-.84Z"/><path class="cls-1" d="m61.01,13c-.65,0-1.15-.2-1.51-.6-.36-.4-.54-.96-.54-1.68s.18-1.27.54-1.67c.36-.4.87-.6,1.51-.6s1.15.2,1.51.6c.36.4.54.96.54,1.67s-.18,1.28-.54,1.68c-.36.4-.87.6-1.51.6Zm0-.68c.8,0,1.2-.54,1.2-1.61s-.4-1.6-1.2-1.6-1.2.53-1.2,1.6.4,1.61,1.2,1.61Z"/><path class="cls-1" d="m67.02,12.87v-2.88c0-.3-.06-.52-.18-.66-.12-.14-.31-.21-.57-.21-.45,0-.89.14-1.32.43v3.32h-.84v-4.31h.71l.08.48c.54-.4,1.1-.6,1.7-.6.41,0,.73.11.94.33.22.22.32.53.32.95v3.16h-.84Z"/></svg>