<?xml version="1.0" encoding="UTF-8"?>
<svg width="32px" height="32px" viewBox="0 0 32 32" version="1.1" xmlns="http://www.w3.org/2000/svg" xmlns:xlink="http://www.w3.org/1999/xlink">
    <!-- Generator: Sketch 53 (72520) - https://sketchapp.com -->
    <title>sch-info-small</title>
    <desc>Created with Sketch.</desc>
    <g id="sch-info-small" stroke="none" stroke-width="1" fill="none" fill-rule="evenodd">
        <path d="M16,0 C17.1212177,0 18.1969645,0.106059545 19.2272727,0.318181818 C20.2575809,0.530304091 21.2575709,0.848482727 22.2272727,1.27272727 C23.1969745,1.66666864 24.1060564,2.15151227 24.9545455,2.72727273 C25.8030345,3.30303318 26.5909055,3.95454182 27.3181818,4.68181818 C28.0454582,5.40909455 28.6893911,6.19696545 29.25,7.04545455 C29.8106089,7.89394364 30.3030282,8.80302545 30.7272727,9.77272727 C31.1515173,10.7424291 31.4696959,11.7424191 31.6818182,12.7727273 C31.8939405,13.8030355 32,14.8787823 32,16 C32,17.1212177 31.8939405,18.1969645 31.6818182,19.2272727 C31.4696959,20.2575809 31.1515173,21.2575709 30.7272727,22.2272727 C30.3333314,23.1969745 29.8484877,24.1060564 29.2727273,24.9545455 C28.6969668,25.8030345 28.0454582,26.5909055 27.3181818,27.3181818 C26.5909055,28.0454582 25.8030345,28.6893911 24.9545455,29.25 C24.1060564,29.8106089 23.1969745,30.3030282 22.2272727,30.7272727 C21.2575709,31.1515173 20.2575809,31.4696959 19.2272727,31.6818182 C18.1969645,31.8939405 17.1212177,32 16,32 C14.8787823,32 13.8030355,31.8939405 12.7727273,31.6818182 C11.7424191,31.4696959 10.7424291,31.1515173 9.77272727,30.7272727 C8.80302545,30.3333314 7.89394364,29.8484877 7.04545455,29.2727273 C6.19696545,28.6969668 5.40909455,28.0454582 4.68181818,27.3181818 C3.95454182,26.5909055 3.31060886,25.8030345 2.75,24.9545455 C2.18939114,24.1060564 1.69697182,23.1969745 1.27272727,22.2272727 C0.848482727,21.2575709 0.530304091,20.2575809 0.318181818,19.2272727 C0.106059545,18.1969645 0,17.1212177 0,16 C0,14.8787823 0.106059545,13.8030355 0.318181818,12.7727273 C0.530304091,11.7424191 0.848482727,10.7424291 1.27272727,9.77272727 C1.66666864,8.80302545 2.15151227,7.89394364 2.72727273,7.04545455 C3.30303318,6.19696545 3.95454182,5.40909455 4.68181818,4.68181818 C5.40909455,3.95454182 6.19696545,3.31060886 7.04545455,2.75 C7.89394364,2.18939114 8.80302545,1.69697182 9.77272727,1.27272727 C10.7424291,0.848482727 11.7424191,0.530304091 12.7727273,0.318181818 C13.8030355,0.106059545 14.8787823,0 16,0 Z M16,4.36363636 C15.6060586,4.36363636 15.2424259,4.4318175 14.9090909,4.56818182 C14.5757559,4.70454614 14.2575773,4.92424091 13.9545455,5.22727273 C13.6515136,5.53030455 13.4318189,5.84848318 13.2954545,6.18181818 C13.1590902,6.51515318 13.0909091,6.87878591 13.0909091,7.27272727 C13.0909091,7.66666864 13.1590902,8.03030136 13.2954545,8.36363636 C13.4318189,8.69697136 13.6515136,9.01515 13.9545455,9.31818182 C14.2575773,9.62121364 14.5757559,9.84090841 14.9090909,9.97727273 C15.2424259,10.113637 15.6060586,10.1818182 16,10.1818182 C16.3939414,10.1818182 16.7575741,10.113637 17.0909091,9.97727273 C17.4242441,9.84090841 17.7424227,9.62121364 18.0454545,9.31818182 C18.3484864,9.01515 18.5681811,8.69697136 18.7045455,8.36363636 C18.8409098,8.03030136 18.9090909,7.66666864 18.9090909,7.27272727 C18.9090909,6.87878591 18.8409098,6.51515318 18.7045455,6.18181818 C18.5681811,5.84848318 18.3484864,5.53030455 18.0454545,5.22727273 C17.7424227,4.92424091 17.4242441,4.70454614 17.0909091,4.56818182 C16.7575741,4.4318175 16.3939414,4.36363636 16,4.36363636 Z M20.3636364,27.4090909 L20.6818182,26.0454545 C20.651515,26.0757577 20.6060609,26.0984848 20.5454545,26.1136364 C20.4848482,26.128788 20.4242427,26.1363636 20.3636364,26.1363636 C20.30303,26.1666668 20.2272732,26.1969695 20.1363636,26.2272727 L19.8636364,26.3181818 C19.7424236,26.348485 19.6363641,26.371212 19.5454545,26.3863636 C19.454545,26.4015152 19.3787882,26.4242423 19.3181818,26.4545455 C19.2272723,26.4848486 19.1363641,26.5 19.0454545,26.5 L18.8181818,26.5 C18.6666659,26.5 18.5151523,26.4924243 18.3636364,26.4772727 C18.2121205,26.4621211 18.0909095,26.4393941 18,26.4090909 C17.8787873,26.3787877 17.765152,26.3409093 17.6590909,26.2954545 C17.5530298,26.2499998 17.4696973,26.19697 17.4090909,26.1363636 C17.3484845,26.1060605 17.2954548,26.0530307 17.25,25.9772727 C17.2045452,25.9015148 17.1666668,25.8030309 17.1363636,25.6818182 C17.0757573,25.5606055 17.0378789,25.4469702 17.0227273,25.3409091 C17.0075757,25.234848 17,25.1060614 17,24.9545455 L17,24.75 C17,24.674242 17.0151514,24.5909095 17.0454545,24.5 C17.0757577,24.4090905 17.0909091,24.3106066 17.0909091,24.2045455 C17.0909091,24.0984843 17.1060605,23.9848491 17.1363636,23.8636364 C17.1666668,23.7424236 17.1893939,23.6363641 17.2045455,23.5454545 C17.219697,23.454545 17.2424241,23.3484855 17.2727273,23.2272727 C17.3030305,23.10606 17.3257575,23.0000005 17.3409091,22.9090909 C17.3560607,22.8181814 17.3787877,22.7272732 17.4090909,22.6363636 L18.6818182,18.1363636 C18.7121214,18.0454541 18.7424241,17.9469702 18.7727273,17.8409091 C18.8030305,17.734848 18.8181818,17.6363641 18.8181818,17.5454545 C18.848485,17.4242418 18.871212,17.3030309 18.8863636,17.1818182 C18.9015152,17.0606055 18.9242423,16.9393945 18.9545455,16.8181818 C18.9848486,16.6969691 19,16.5757582 19,16.4545455 L19,15.7727273 C19,15.5303018 18.977273,15.3030314 18.9318182,15.0909091 C18.8863634,14.8787868 18.8333336,14.6818191 18.7727273,14.5 C18.6818177,14.2878777 18.5681825,14.0984857 18.4318182,13.9318182 C18.2954539,13.7651507 18.1515159,13.6060614 18,13.4545455 C17.8484841,13.3030295 17.6666677,13.174243 17.4545455,13.0681818 C17.2424232,12.9621207 17.0303041,12.8787882 16.8181818,12.8181818 C16.5757564,12.7272723 16.3181832,12.6666668 16.0454545,12.6363636 C15.7727259,12.6060605 15.48485,12.5909091 15.1818182,12.5909091 C15.0303023,12.5909091 14.8636373,12.5984848 14.6818182,12.6136364 C14.4999991,12.628788 14.3181827,12.651515 14.1363636,12.6818182 C13.9545445,12.7121214 13.7727282,12.7499998 13.5909091,12.7954545 C13.40909,12.8409093 13.2121223,12.8939391 13,12.9545455 L12.4545455,13.1363636 C12.2727264,13.19697 12.0757586,13.2575755 11.8636364,13.3181818 C11.6515141,13.4090914 11.4469707,13.4924239 11.25,13.5681818 C11.0530293,13.6439398 10.8484859,13.7272723 10.6363636,13.8181818 L10.2727273,15.1818182 C10.3333336,15.151515 10.4015148,15.128788 10.4772727,15.1136364 C10.5530307,15.0984848 10.6212118,15.0909091 10.6818182,15.0909091 C10.7424245,15.0606059 10.8181814,15.0303032 10.9090909,15 L11.1818182,14.9090909 C11.2727277,14.8787877 11.3636359,14.8560607 11.4545455,14.8409091 C11.545455,14.8257575 11.6212118,14.8030305 11.6818182,14.7727273 C11.7727277,14.7424241 11.8636359,14.7272727 11.9545455,14.7272727 L12.1818182,14.7272727 C12.3333341,14.7272727 12.4848477,14.7348484 12.6363636,14.75 C12.7878795,14.7651516 12.9090905,14.7878786 13,14.8181818 C13.1212127,14.848485 13.2272723,14.8863634 13.3181818,14.9318182 C13.4090914,14.977273 13.4848482,15.0303027 13.5454545,15.0909091 C13.6060609,15.1515155 13.6590907,15.2196966 13.7045455,15.2954545 C13.7500002,15.3712125 13.7878786,15.454545 13.8181818,15.5454545 C13.848485,15.6666673 13.871212,15.7803025 13.8863636,15.8863636 C13.9015152,15.9924248 13.9090909,16.1212114 13.9090909,16.2727273 L13.9090909,16.7727273 C13.8787877,16.8636368 13.8560607,16.954545 13.8409091,17.0454545 C13.8257575,17.1363641 13.8030305,17.2424236 13.7727273,17.3636364 C13.7424241,17.4545459 13.719697,17.5454541 13.7045455,17.6363636 C13.6893939,17.7272732 13.6818182,17.8333327 13.6818182,17.9545455 C13.651515,18.0757582 13.6212123,18.1818177 13.5909091,18.2727273 C13.5606059,18.3636368 13.5303032,18.4696964 13.5,18.5909091 L12.2272727,23.0909091 C12.1969695,23.2121218 12.1666668,23.325757 12.1363636,23.4318182 C12.1060605,23.5378793 12.0909091,23.6515145 12.0909091,23.7727273 C12.0606059,23.89394 12.0378789,23.9999995 12.0227273,24.0909091 C12.0075757,24.1818186 12,24.2727268 12,24.3636364 C11.9696968,24.4545459 11.9545455,24.5454541 11.9545455,24.6363636 L11.9545455,24.9090909 C11.9242423,25.0000005 11.9090909,25.0909086 11.9090909,25.1818182 L11.9090909,25.4545455 C11.9090909,25.6666677 11.931818,25.8787868 11.9772727,26.0909091 C12.0227275,26.3030314 12.0757573,26.5151505 12.1363636,26.7272727 C12.2272732,26.939395 12.3409084,27.128787 12.4772727,27.2954545 C12.613637,27.462122 12.7727264,27.6212114 12.9545455,27.7727273 C13.1060614,27.89394 13.2878777,28.0151509 13.5,28.1363636 C13.7121223,28.2575764 13.9242414,28.3484845 14.1363636,28.4090909 C14.3787891,28.4696973 14.6363623,28.522727 14.9090909,28.5681818 C15.1818195,28.6136366 15.4848468,28.6363636 15.8181818,28.6363636 C16.0303041,28.6363636 16.2272718,28.628788 16.4090909,28.6136364 C16.59091,28.5984848 16.757575,28.5909091 16.9090909,28.5909091 C17.09091,28.5606059 17.2651507,28.5227275 17.4318182,28.4772727 C17.5984857,28.431818 17.757575,28.3787882 17.9090909,28.3181818 C18.0606068,28.2878786 18.2272718,28.2348489 18.4090909,28.1590909 C18.59091,28.083333 18.7727264,28.0151518 18.9545455,27.9545455 C19.1666677,27.8939391 19.3939382,27.8181823 19.6363636,27.7272727 C19.8787891,27.6363632 20.1212109,27.5303036 20.3636364,27.4090909 Z" id="combined-shape" fill="#657884" fill-rule="nonzero"></path>
    </g>
</svg>