<?xml version="1.0" encoding="UTF-8"?>
<svg width="133px" height="34px" viewBox="0 0 133 34" version="1.1" xmlns="http://www.w3.org/2000/svg" xmlns:xlink="http://www.w3.org/1999/xlink">
    <title>spotify@1x</title>
    <defs>
        <path d="M0,9.9875 C0,15.50315 4.43927273,19.975 9.91454545,19.975 L9.91454545,19.975 C15.3898182,19.975 19.8299394,15.50315 19.8299394,9.9875 L19.8299394,9.9875 C19.8299394,4.471 15.3898182,0 9.91454545,0 L9.91454545,0 C4.43927273,0 0,4.471 0,9.9875 L0,9.9875 Z M3.10460606,7.0771 C2.95612121,6.5824 3.23272727,6.06135 3.72230303,5.9109 L3.72230303,5.9109 C7.22484848,4.84075 13.0471515,5.0473 16.7261818,7.24795 L16.7261818,7.24795 C17.1673939,7.5106 17.3124848,8.08435 17.050303,8.5272 L17.050303,8.5272 C16.7889697,8.97175 16.2187879,9.11795 15.7792727,8.85445 L15.7792727,8.85445 C12.5838788,6.94195 7.31139394,6.766 4.26109091,7.69845 L4.26109091,7.69845 C4.17115152,7.7265 4.08036364,7.73925 3.99127273,7.73925 L3.99127273,7.73925 C3.59333333,7.73925 3.22509091,7.48 3.10460606,7.0771 L3.10460606,7.0771 Z M3.76727273,10.26035 C3.64424242,9.8481 3.8750303,9.41375 4.28230303,9.2888 L4.28230303,9.2888 C7.88412121,8.18805 12.3598788,8.721 15.4203636,10.6148 L15.4203636,10.6148 C15.7843636,10.8409 15.8980606,11.3203 15.6757576,11.6858 L15.6757576,11.6858 C15.4509091,12.05215 14.9757576,12.1669 14.6109091,11.9425 L14.6109091,11.9425 C11.9475152,10.29265 7.88412121,9.8141 4.732,10.77885 L4.732,10.77885 C4.65733333,10.8018 4.58266667,10.81285 4.508,10.81285 L4.508,10.81285 C4.17624242,10.81285 3.86824242,10.5961 3.76727273,10.26035 L3.76727273,10.26035 Z M4.16266667,13.1818 C4.08630303,12.8469 4.29418182,12.512 4.62678788,12.43635 L4.62678788,12.43635 C8.40339394,11.56595 11.6437576,11.9408 14.2570909,13.54985 L14.2570909,13.54985 C14.5489697,13.72835 14.6397576,14.1117 14.4615758,14.40495 L14.4615758,14.40495 C14.2833939,14.6999 13.9032727,14.7917 13.6122424,14.6132 L13.6122424,14.6132 C11.284,13.17925 8.35333333,12.8554 4.90169697,13.65015 L4.90169697,13.65015 C4.85587879,13.66035 4.80921212,13.66545 4.76424242,13.66545 L4.76424242,13.66545 C4.48254545,13.66545 4.22715152,13.4691 4.16266667,13.1818 L4.16266667,13.1818 Z M50.5018182,5.7001 C50.5018182,6.31295 50.9947879,6.80765 51.6014545,6.80765 L51.6014545,6.80765 C52.2089697,6.80765 52.7010909,6.31295 52.7010909,5.7001 L52.7010909,5.7001 C52.7010909,5.08895 52.2089697,4.5934 51.6014545,4.5934 L51.6014545,4.5934 C50.9947879,4.5934 50.5018182,5.08895 50.5018182,5.7001 L50.5018182,5.7001 Z M54.0366061,7.327 L54.0366061,7.65425 L53.2992727,7.65425 C53.2373333,7.65425 53.1872727,7.70525 53.1872727,7.7673 L53.1872727,7.7673 L53.1872727,9.10095 C53.1872727,9.163 53.2373333,9.21315 53.2992727,9.21315 L53.2992727,9.21315 L54.0366061,9.21315 L54.0366061,14.51035 C54.0366061,14.57325 54.0858182,14.6234 54.1477576,14.6234 L54.1477576,14.6234 L55.6801212,14.6234 C55.7420606,14.6234 55.7929697,14.57325 55.7929697,14.51035 L55.7929697,14.51035 L55.7929697,9.21315 L57.2235152,9.21315 L59.416,14.50865 C59.1682424,15.0654 58.9230303,15.1759 58.5878788,15.1759 L58.5878788,15.1759 C58.3189091,15.1759 58.0338182,15.09515 57.7436364,14.93535 L57.7436364,14.93535 C57.7164848,14.9192 57.6833939,14.91665 57.653697,14.92685 L57.653697,14.92685 C57.6248485,14.9362 57.6002424,14.9583 57.5875152,14.9872 L57.5875152,14.9872 L57.0682424,16.13555 C57.0436364,16.18995 57.0648485,16.25285 57.1157576,16.28175 L57.1157576,16.28175 C57.6587879,16.57755 58.1483636,16.70335 58.7533333,16.70335 L58.7533333,16.70335 C59.8852121,16.70335 60.5113939,16.17295 61.0620606,14.7441 L61.0620606,14.7441 L63.7212121,7.82085 C63.7356364,7.78685 63.7305455,7.74775 63.7101818,7.7163 L63.7101818,7.7163 C63.6889697,7.6857 63.6541818,7.66785 63.6185455,7.66785 L63.6185455,7.66785 L62.0225455,7.66785 C61.9741818,7.66785 61.9309091,7.69845 61.9164848,7.7435 L61.9164848,7.7435 L60.2814545,12.4474 L58.490303,7.7401 C58.4741818,7.69675 58.4326061,7.66785 58.3867879,7.66785 L58.3867879,7.66785 L55.7675152,7.66785 L55.7675152,7.4545 C55.7675152,6.82635 56.0067879,6.5467 56.5413333,6.5467 L56.5413333,6.5467 C56.8620606,6.5467 57.118303,6.61045 57.4059394,6.7065 L57.4059394,6.7065 C57.4407273,6.7184 57.4780606,6.71245 57.5069091,6.6912 L57.5069091,6.6912 C57.5366061,6.66995 57.5535758,6.63595 57.5535758,6.5994 L57.5535758,6.5994 L57.5535758,5.29805 C57.5535758,5.24875 57.5213333,5.20455 57.4738182,5.18925 L57.4738182,5.18925 C57.1709091,5.09915 56.782303,5.00565 56.1993939,5.00565 L56.1993939,5.00565 C54.7849697,5.00565 54.0366061,5.8089 54.0366061,7.327 L54.0366061,7.327 Z M23.1763636,8.05375 C23.1763636,9.7682 24.2895758,10.3751 26.2147879,10.84345 L26.2147879,10.84345 C27.8523636,11.22425 28.1281212,11.54215 28.1281212,12.11165 L28.1281212,12.11165 C28.1281212,12.74235 27.5698182,13.13505 26.6695758,13.13505 L26.6695758,13.13505 C25.6709091,13.13505 24.8555152,12.79505 23.9433939,12.0003 L23.9433939,12.0003 C23.9213333,11.98075 23.8899394,11.9714 23.8619394,11.9731 L23.8619394,11.9731 C23.8313939,11.97565 23.8042424,11.9901 23.7847273,12.01305 L23.7847273,12.01305 L22.848,13.13675 C22.8081212,13.1835 22.8123636,13.2532 22.8581818,13.29315 L22.8581818,13.29315 C23.9196364,14.2477 25.2246061,14.75175 26.6313939,14.75175 L26.6313939,14.75175 C28.6236364,14.75175 29.9107879,13.65525 29.9107879,11.95865 L29.9107879,11.95865 C29.9107879,10.5247 29.0606061,9.7308 26.9750303,9.2208 L26.9750303,9.2208 C25.2636364,8.80855 24.9581818,8.5204 24.9581818,7.9135 L24.9581818,7.9135 C24.9581818,7.3406 25.4935758,6.95555 26.2894545,6.95555 L26.2894545,6.95555 C27.0624242,6.95555 27.8269091,7.24795 28.6304242,7.85145 L28.6304242,7.85145 C28.6541818,7.8693 28.6847273,7.8761 28.7144242,7.87185 L28.7144242,7.87185 C28.7441212,7.86675 28.7704242,7.85145 28.7890909,7.82595 L28.7890909,7.82595 L29.624,6.6385 C29.6587879,6.59005 29.6486061,6.5229 29.6027879,6.4855 L29.6027879,6.4855 C28.6473939,5.71285 27.5723636,5.338 26.3157576,5.338 L26.3157576,5.338 C24.4669091,5.338 23.1763636,6.4549 23.1763636,8.05375 L23.1763636,8.05375 Z M46.5597576,5.8106 C46.4978182,5.8106 46.4469091,5.8616 46.4469091,5.92365 L46.4469091,5.92365 L46.4469091,7.6602 L45.7095758,7.6602 C45.6484848,7.6602 45.5992727,7.7112 45.5992727,7.7741 L45.5992727,7.7741 L45.5992727,9.10095 C45.5992727,9.163 45.6484848,9.21315 45.7095758,9.21315 L45.7095758,9.21315 L46.4469091,9.21315 L46.4469091,12.648 C46.4469091,14.03605 47.1324848,14.739 48.4849697,14.739 L48.4849697,14.739 C49.0347879,14.739 49.4904242,14.62425 49.9206061,14.3786 L49.9206061,14.3786 C49.9553939,14.3599 49.9774545,14.32165 49.9774545,14.28085 L49.9774545,14.28085 L49.9774545,13.0169 C49.9774545,12.9778 49.9570909,12.94125 49.924,12.92085 L49.924,12.92085 C49.8900606,12.90045 49.8493333,12.89875 49.8145455,12.91575 L49.8145455,12.91575 C49.5192727,13.06535 49.2341818,13.13505 48.9151515,13.13505 L48.9151515,13.13505 C48.4238788,13.13505 48.2032727,12.9098 48.2032727,12.4049 L48.2032727,12.4049 L48.2032727,9.21315 L49.8900606,9.21315 C49.9528485,9.21315 50.0029091,9.163 50.0029091,9.10095 L50.0029091,9.10095 L50.0029091,7.7741 C50.0029091,7.7112 49.9528485,7.6602 49.8900606,7.6602 L49.8900606,7.6602 L48.2032727,7.6602 L48.2032727,5.92365 C48.2032727,5.8616 48.1540606,5.8106 48.0921212,5.8106 L48.0921212,5.8106 L46.5597576,5.8106 Z M38.1232727,11.16815 C38.1232727,13.192 39.730303,14.77725 41.7819394,14.77725 L41.7819394,14.77725 C43.8556364,14.77725 45.4787879,13.1801 45.4787879,11.1418 L45.4787879,11.1418 C45.4787879,9.1103 43.8666667,7.5191 41.8073939,7.5191 L41.8073939,7.5191 C39.7421818,7.5191 38.1232727,9.1222 38.1232727,11.16815 L38.1232727,11.16815 Z M39.8804848,11.1418 C39.8804848,9.95775 40.6806061,9.0984 41.7819394,9.0984 L41.7819394,9.0984 C42.8883636,9.0984 43.7224242,9.98835 43.7224242,11.16815 L43.7224242,11.16815 C43.7224242,12.35135 42.9172121,13.2107 41.8073939,13.2107 L41.8073939,13.2107 C40.7094545,13.2107 39.8804848,12.32075 39.8804848,11.1418 L39.8804848,11.1418 Z M32.2610909,8.56375 L32.2610909,7.7741 C32.2610909,7.7112 32.2118788,7.6602 32.1499394,7.6602 L32.1499394,7.6602 L30.6167273,7.6602 C30.5556364,7.6602 30.5047273,7.7112 30.5047273,7.7741 L30.5047273,7.7741 L30.5047273,16.5512 C30.5047273,16.6141 30.5556364,16.66425 30.6167273,16.66425 L30.6167273,16.66425 L32.1499394,16.66425 C32.2118788,16.66425 32.2610909,16.6141 32.2610909,16.5512 L32.2610909,16.5512 L32.2610909,13.7802 C32.845697,14.4415 33.5541818,14.76365 34.4179394,14.76365 L34.4179394,14.76365 C36.0215758,14.76365 37.6447273,13.5201 37.6447273,11.1418 L37.6447273,11.1418 C37.6447273,8.7635 36.0215758,7.5191 34.4179394,7.5191 L34.4179394,7.5191 C33.5541818,7.5191 32.845697,7.86165 32.2610909,8.56375 L32.2610909,8.56375 Z M32.2229091,11.1418 C32.2229091,9.96965 33.0145455,9.08565 34.0615758,9.08565 L34.0615758,9.08565 C35.1052121,9.08565 35.8629091,9.9501 35.8629091,11.1418 L35.8629091,11.1418 C35.8629091,12.35305 35.1221818,13.1988 34.0615758,13.1988 L34.0615758,13.1988 C33.0145455,13.1988 32.2229091,12.31395 32.2229091,11.1418 L32.2229091,11.1418 Z M63.952,8.7397 C63.952,9.3364 64.4229091,9.826 65.0304242,9.826 L65.0304242,9.826 C65.6362424,9.826 66.1147879,9.3296 66.1147879,8.73375 L66.1147879,8.73375 C66.1147879,8.1379 65.6430303,7.64745 65.0355152,7.64745 L65.0355152,7.64745 C64.4305455,7.64745 63.952,8.14385 63.952,8.7397 L63.952,8.7397 Z M64.065697,8.7397 C64.065697,8.1974 64.4831515,7.7554 65.0355152,7.7554 L65.0355152,7.7554 C65.5861818,7.7554 66.0010909,8.1923 66.0010909,8.73375 L66.0010909,8.73375 C66.0010909,9.2752 65.5827879,9.7189 65.0304242,9.7189 L65.0304242,9.7189 C64.4806061,9.7189 64.065697,9.28115 64.065697,8.7397 L64.065697,8.7397 Z M50.8284848,7.6602 C50.765697,7.6602 50.7147879,7.7112 50.7147879,7.7741 L50.7147879,7.7741 L50.7147879,14.51035 C50.7147879,14.57325 50.765697,14.6234 50.8284848,14.6234 L50.8284848,14.6234 L52.3608485,14.6234 C52.4219394,14.6234 52.472,14.57325 52.472,14.51035 L52.472,14.51035 L52.472,7.7741 C52.472,7.7112 52.4219394,7.6602 52.3608485,7.6602 L52.3608485,7.6602 L50.8284848,7.6602 Z M64.5968485,8.1345 L64.5968485,9.2752 L64.8115152,9.2752 L64.8115152,8.8808 L65.0482424,8.8808 L65.3231515,9.2752 L65.5802424,9.2752 L65.2756364,8.84595 C65.4309091,8.80005 65.5378182,8.68615 65.5378182,8.49915 L65.5378182,8.49915 C65.5378182,8.27135 65.3647273,8.1345 65.101697,8.1345 L65.101697,8.1345 L64.5968485,8.1345 Z M64.8115152,8.33085 L65.0932121,8.33085 C65.2323636,8.33085 65.3163636,8.39375 65.3163636,8.5102 L65.3163636,8.5102 C65.3163636,8.6224 65.2323636,8.6921 65.0932121,8.6921 L65.0932121,8.6921 L64.8115152,8.6921 L64.8115152,8.33085 Z" id="path-1"></path>
        <path d="M30.6642424,2.67325 C30.6642424,4.32055 31.9047273,5.33885 33.2894545,5.33885 L33.2894545,5.33885 C34.6809697,5.33885 35.922303,4.32055 35.922303,2.67325 L35.922303,2.67325 C35.922303,1.0183 34.6809697,0 33.2894545,0 L33.2894545,0 C31.9047273,0 30.6642424,1.0183 30.6642424,2.67325 L30.6642424,2.67325 Z M31.6951515,2.66645 C31.6951515,1.5096 32.5029091,0.96135 33.2894545,0.96135 L33.2894545,0.96135 C34.0827879,0.96135 34.8905455,1.5096 34.8905455,2.66645 L34.8905455,2.66645 C34.8905455,3.8216 34.0827879,4.37155 33.2894545,4.37155 L33.2894545,4.37155 C32.5029091,4.37155 31.6951515,3.8216 31.6951515,2.66645 L31.6951515,2.66645 Z M7.32157576,1.60395 C7.32157576,2.37745 7.84848485,2.90445 8.6630303,3.0702 L8.6630303,3.0702 L9.37745455,3.2147 C9.77454545,3.2946 9.99769697,3.5258 9.99769697,3.8216 L9.99769697,3.8216 C9.99769697,4.1837 9.70157576,4.45145 9.16787879,4.45145 L9.16787879,4.45145 C8.44666667,4.45145 8.09369697,3.995 8.05042424,3.48925 L8.05042424,3.48925 L7.12727273,3.7349 C7.20618182,4.46505 7.80521212,5.33885 9.16109091,5.33885 L9.16109091,5.33885 C10.3506667,5.33885 11.0073939,4.5441 11.0073939,3.757 L11.0073939,3.757 C11.0073939,3.03535 10.5101818,2.4276 9.57939394,2.2474 L9.57939394,2.2474 L8.8649697,2.1097 C8.48993939,2.03745 8.31006061,1.81305 8.31006061,1.5317 L8.31006061,1.5317 C8.31006061,1.19255 8.62739394,0.88145 9.11018182,0.88145 L9.11018182,0.88145 C9.76012121,0.88145 9.99090909,1.3226 10.0409697,1.60395 L10.0409697,1.60395 L10.9352727,1.3294 C10.8198788,0.7514 10.3438788,0 9.10339394,0 L9.10339394,0 C8.13612121,0 7.32157576,0.6936 7.32157576,1.60395 L7.32157576,1.60395 Z M40.8341818,0.10795 L40.8341818,3.4969 L38.7061818,0.10795 L37.4665455,0.10795 L37.4665455,5.23175 L38.4609697,5.23175 L38.4609697,1.59715 L40.7832727,5.23175 L41.8294545,5.23175 L41.8294545,0.10795 L40.8341818,0.10795 Z M25.873697,0.10795 L25.873697,3.4969 L23.7465455,0.10795 L22.5060606,0.10795 L22.5060606,5.23175 L23.5004848,5.23175 L23.5004848,1.59715 L25.8227879,5.23175 L26.8689697,5.23175 L26.8689697,0.10795 L25.873697,0.10795 Z M17.6875152,0.10795 L17.6875152,5.23175 L20.8888485,5.23175 L20.8888485,4.2908 L18.6819394,4.2908 L18.6819394,3.10675 L20.6801212,3.10675 L20.6801212,2.21765 L18.6819394,2.21765 L18.6819394,1.0472 L20.8888485,1.0472 L20.8888485,0.10795 L17.6875152,0.10795 Z M12.0900606,0.10795 L12.0900606,1.0557 L13.7055758,1.0557 L13.7055758,5.23175 L14.7084848,5.23175 L14.7084848,1.0557 L16.3231515,1.0557 L16.3231515,0.10795 L12.0900606,0.10795 Z M4.63866667,5.23175 L5.64836364,5.23175 L5.64836364,0.1088 L4.63866667,0.1088 L4.63866667,5.23175 Z M0,0.10795 L0,5.23175 L3.27430303,5.23175 L3.27430303,4.2772 L0.995272727,4.2772 L0.995272727,0.10795 L0,0.10795 Z" id="path-3"></path>
    </defs>
    <g id="podcast" stroke="none" stroke-width="1" fill="none" fill-rule="evenodd">
        <g id="podcast-mock-up-copy-14" transform="translate(-1056.000000, -223.000000)">
            <g id="spotify" transform="translate(1056.000000, 223.000000)">
                <g id="Group-13" transform="translate(10.363636, 7.012500)">
                    <g id="Group-9" transform="translate(46.666667, 0.000000)">
                        <mask id="mask-2" fill="white">
                            <use xlink:href="#path-1"></use>
                        </mask>
                        <g id="Clip-8"></g>
                        <polygon id="Fill-7" fill="#17D65E" mask="url(#mask-2)" points="-4.24242424 24.225 70.3572121 24.225 70.3572121 -4.25 -4.24242424 -4.25"></polygon>
                    </g>
                    <g id="Group-12" transform="translate(0.000000, 7.225000)">
                        <mask id="mask-4" fill="white">
                            <use xlink:href="#path-3"></use>
                        </mask>
                        <g id="Clip-11"></g>
                        <polygon id="Fill-10" fill="#000000" mask="url(#mask-4)" points="-4.24242424 9.58885 46.0718788 9.58885 46.0718788 -4.25 -4.24242424 -4.25"></polygon>
                    </g>
                </g>
                <rect id="Rectangle-Copy-19" stroke="#777878" stroke-width="0.6" x="0.3" y="0.3" width="132.4" height="33.4" rx="8"></rect>
            </g>
        </g>
    </g>
</svg>